<svg width="44" height="40" viewBox="0 0 44 40" fill="none" xmlns="http://www.w3.org/2000/svg">
<path d="M12 4C12 1.79086 13.7909 0 16 0H40C42.2091 0 44 1.79086 44 4V36C44 38.2091 42.2091 40 40 40H16C13.7909 40 12 38.2091 12 36V4Z" fill="#D9D9D9"/>
<path d="M4 19C4 16.7909 5.79086 15 8 15H36C38.2091 15 40 16.7909 40 19V31C40 33.2091 38.2091 35 36 35H8C5.79086 35 4 33.2091 4 31V19Z" fill="#11831F"/>
<path d="M9.03677 30V22.72H10.5968L10.7398 23.695H10.7788C11.0821 23.383 11.4114 23.1143 11.7668 22.889C12.1221 22.655 12.5381 22.538 13.0148 22.538C13.5348 22.538 13.9508 22.6507 14.2628 22.876C14.5834 23.0927 14.8304 23.4047 15.0038 23.812C15.3504 23.4567 15.7058 23.1577 16.0698 22.915C16.4424 22.6637 16.8628 22.538 17.3308 22.538C18.1108 22.538 18.6784 22.798 19.0338 23.318C19.3978 23.8293 19.5798 24.5443 19.5798 25.463V30H17.6818V25.697C17.6818 25.1337 17.5994 24.7393 17.4348 24.514C17.2701 24.2887 17.0144 24.176 16.6678 24.176C16.4598 24.176 16.2388 24.2453 16.0048 24.384C15.7794 24.514 15.5324 24.7177 15.2638 24.995V30H13.3528V25.697C13.3528 25.1337 13.2704 24.7393 13.1058 24.514C12.9411 24.2887 12.6854 24.176 12.3388 24.176C12.1394 24.176 11.9184 24.2453 11.6758 24.384C11.4418 24.514 11.1991 24.7177 10.9478 24.995V30H9.03677ZM24.609 30.182C24.0024 30.182 23.4304 30.0303 22.893 29.727C22.3644 29.4237 21.9354 28.9903 21.606 28.427C21.2767 27.855 21.112 27.166 21.112 26.36C21.112 25.554 21.2767 24.8693 21.606 24.306C21.9354 23.734 22.3644 23.2963 22.893 22.993C23.4304 22.6897 24.0024 22.538 24.609 22.538C25.0684 22.538 25.506 22.6247 25.922 22.798C26.338 22.9713 26.7107 23.2227 27.04 23.552C27.3694 23.8727 27.6294 24.2713 27.82 24.748C28.0107 25.216 28.106 25.7533 28.106 26.36C28.106 27.166 27.9414 27.855 27.612 28.427C27.2827 28.9903 26.8494 29.4237 26.312 29.727C25.7834 30.0303 25.2157 30.182 24.609 30.182ZM24.609 28.622C24.9384 28.622 25.2157 28.531 25.441 28.349C25.675 28.1583 25.8484 27.894 25.961 27.556C26.0824 27.218 26.143 26.8193 26.143 26.36C26.143 25.9007 26.0824 25.502 25.961 25.164C25.8484 24.826 25.675 24.566 25.441 24.384C25.2157 24.1933 24.9384 24.098 24.609 24.098C24.2797 24.098 23.998 24.1933 23.764 24.384C23.5387 24.566 23.3654 24.826 23.244 25.164C23.1314 25.502 23.075 25.9007 23.075 26.36C23.075 26.8193 23.1314 27.218 23.244 27.556C23.3654 27.894 23.5387 28.1583 23.764 28.349C23.998 28.531 24.2797 28.622 24.609 28.622ZM31.165 30L28.682 22.72H30.606L31.659 26.347C31.763 26.711 31.8627 27.0793 31.958 27.452C32.062 27.816 32.1617 28.1843 32.257 28.557H32.322C32.4173 28.1843 32.5127 27.816 32.608 27.452C32.712 27.0793 32.8117 26.711 32.907 26.347L33.973 22.72H35.806L33.375 30H31.165Z" fill="white"/>
<path d="M34 0H42C43.1046 0 44 0.895431 44 2V10H36C34.8954 10 34 9.10457 34 8V0Z" fill="url(#paint0_linear_11970_4902)"/>
<defs>
<linearGradient id="paint0_linear_11970_4902" x1="44" y1="0" x2="34" y2="10" gradientUnits="userSpaceOnUse">
<stop offset="0.5" stop-color="white"/>
<stop offset="0.5" stop-color="#C6C6C6"/>
</linearGradient>
</defs>
</svg>
