<svg width="44" height="40" viewBox="0 0 44 40" fill="none" xmlns="http://www.w3.org/2000/svg">
<path d="M12 4C12 1.79086 13.7909 0 16 0H40C42.2091 0 44 1.79086 44 4V36C44 38.2091 42.2091 40 40 40H16C13.7909 40 12 38.2091 12 36V4Z" fill="#D9D9D9"/>
<path d="M4 19C4 16.7909 5.79086 15 8 15H36C38.2091 15 40 16.7909 40 19V31C40 33.2091 38.2091 35 36 35H8C5.79086 35 4 33.2091 4 31V19Z" fill="#4231D8"/>
<path d="M12.4717 32.977C12.1857 32.977 11.9473 32.9553 11.7567 32.912C11.5573 32.8773 11.3883 32.8297 11.2497 32.769L11.5877 31.365C11.683 31.3997 11.7827 31.4257 11.8867 31.443C11.9907 31.4603 12.0947 31.469 12.1987 31.469C12.502 31.469 12.71 31.365 12.8227 31.157C12.9353 30.949 12.9917 30.6413 12.9917 30.234V22.72H14.9157V30.182C14.9157 30.702 14.8377 31.17 14.6817 31.586C14.5343 32.0107 14.2787 32.3487 13.9147 32.6C13.5593 32.8513 13.0783 32.977 12.4717 32.977ZM13.9407 21.537C13.62 21.537 13.3557 21.446 13.1477 21.264C12.9397 21.0733 12.8357 20.8177 12.8357 20.497C12.8357 20.185 12.9397 19.9337 13.1477 19.743C13.3557 19.5523 13.62 19.457 13.9407 19.457C14.27 19.457 14.5387 19.5523 14.7467 19.743C14.9547 19.9337 15.0587 20.185 15.0587 20.497C15.0587 20.8177 14.9547 21.0733 14.7467 21.264C14.5387 21.446 14.27 21.537 13.9407 21.537ZM16.9523 32.795V22.72H18.5123L18.6553 23.474H18.6943C18.9976 23.214 19.3313 22.993 19.6953 22.811C20.068 22.629 20.4493 22.538 20.8393 22.538C21.4373 22.538 21.9486 22.694 22.3733 23.006C22.798 23.3093 23.123 23.7383 23.3483 24.293C23.5823 24.839 23.6993 25.489 23.6993 26.243C23.6993 27.075 23.552 27.7857 23.2573 28.375C22.9626 28.9643 22.577 29.415 22.1003 29.727C21.6323 30.0303 21.134 30.182 20.6053 30.182C20.2933 30.182 19.9813 30.1127 19.6693 29.974C19.366 29.8353 19.0756 29.6403 18.7983 29.389L18.8633 30.572V32.795H16.9523ZM20.1893 28.609C20.4753 28.609 20.7353 28.5267 20.9693 28.362C21.2033 28.1887 21.3896 27.9287 21.5283 27.582C21.667 27.2353 21.7363 26.7977 21.7363 26.269C21.7363 25.8097 21.6843 25.4197 21.5803 25.099C21.4763 24.7697 21.3203 24.5227 21.1123 24.358C20.9043 24.1933 20.6313 24.111 20.2933 24.111C20.0506 24.111 19.8123 24.1717 19.5783 24.293C19.353 24.4143 19.1146 24.6007 18.8633 24.852V28.063C19.0973 28.271 19.327 28.414 19.5523 28.492C19.7776 28.57 19.99 28.609 20.1893 28.609ZM27.8795 33.159C27.3075 33.159 26.7918 33.0897 26.3325 32.951C25.8732 32.821 25.5092 32.6173 25.2405 32.34C24.9805 32.0713 24.8505 31.7203 24.8505 31.287C24.8505 30.9837 24.9372 30.702 25.1105 30.442C25.2838 30.182 25.5438 29.961 25.8905 29.779V29.714C25.6998 29.5927 25.5395 29.4323 25.4095 29.233C25.2882 29.0337 25.2275 28.7823 25.2275 28.479C25.2275 28.2103 25.3055 27.959 25.4615 27.725C25.6262 27.4823 25.8168 27.283 26.0335 27.127V27.075C25.7822 26.893 25.5568 26.6373 25.3575 26.308C25.1582 25.9787 25.0585 25.5973 25.0585 25.164C25.0585 24.592 25.1928 24.111 25.4615 23.721C25.7388 23.331 26.1028 23.0363 26.5535 22.837C27.0042 22.6377 27.4808 22.538 27.9835 22.538C28.2002 22.538 28.3995 22.5553 28.5815 22.59C28.7722 22.6247 28.9455 22.668 29.1015 22.72H31.7145V24.124H30.4795C30.5748 24.254 30.6528 24.4143 30.7135 24.605C30.7742 24.7957 30.8045 25.0037 30.8045 25.229C30.8045 25.775 30.6788 26.2343 30.4275 26.607C30.1762 26.971 29.8382 27.244 29.4135 27.426C28.9888 27.608 28.5122 27.699 27.9835 27.699C27.8535 27.699 27.7062 27.686 27.5415 27.66C27.3768 27.6253 27.2122 27.582 27.0475 27.53C26.9522 27.6167 26.8742 27.7077 26.8135 27.803C26.7615 27.8897 26.7355 28.011 26.7355 28.167C26.7355 28.349 26.8178 28.492 26.9825 28.596C27.1558 28.7 27.4548 28.752 27.8795 28.752H29.1275C30.0028 28.752 30.6745 28.8993 31.1425 29.194C31.6105 29.48 31.8445 29.9393 31.8445 30.572C31.8445 31.066 31.6798 31.5037 31.3505 31.885C31.0298 32.275 30.5705 32.5827 29.9725 32.808C29.3832 33.042 28.6855 33.159 27.8795 33.159ZM27.9835 26.516C28.2002 26.516 28.3952 26.464 28.5685 26.36C28.7418 26.256 28.8805 26.1043 28.9845 25.905C29.0885 25.697 29.1405 25.45 29.1405 25.164C29.1405 24.878 29.0885 24.6397 28.9845 24.449C28.8805 24.2497 28.7418 24.1023 28.5685 24.007C28.3952 23.903 28.2002 23.851 27.9835 23.851C27.7755 23.851 27.5848 23.903 27.4115 24.007C27.2382 24.1023 27.0995 24.2497 26.9955 24.449C26.9002 24.6397 26.8525 24.878 26.8525 25.164C26.8525 25.45 26.9002 25.697 26.9955 25.905C27.0995 26.1043 27.2382 26.256 27.4115 26.36C27.5848 26.464 27.7755 26.516 27.9835 26.516ZM28.1655 31.937C28.5382 31.937 28.8588 31.8893 29.1275 31.794C29.4048 31.6987 29.6215 31.573 29.7775 31.417C29.9335 31.261 30.0115 31.0877 30.0115 30.897C30.0115 30.637 29.9075 30.4593 29.6995 30.364C29.4915 30.2773 29.1925 30.234 28.8025 30.234H27.9055C27.6888 30.234 27.5025 30.2253 27.3465 30.208C27.1905 30.1993 27.0432 30.1777 26.9045 30.143C26.7398 30.273 26.6185 30.4073 26.5405 30.546C26.4712 30.6933 26.4365 30.845 26.4365 31.001C26.4365 31.2957 26.5925 31.5253 26.9045 31.69C27.2165 31.8547 27.6368 31.937 28.1655 31.937Z" fill="white"/>
<path d="M34 0H42C43.1046 0 44 0.895431 44 2V10H36C34.8954 10 34 9.10457 34 8V0Z" fill="url(#paint0_linear_11970_4912)"/>
<defs>
<linearGradient id="paint0_linear_11970_4912" x1="44" y1="0" x2="34" y2="10" gradientUnits="userSpaceOnUse">
<stop offset="0.5" stop-color="white"/>
<stop offset="0.5" stop-color="#C6C6C6"/>
</linearGradient>
</defs>
</svg>
