<svg width="44" height="40" viewBox="0 0 44 40" fill="none" xmlns="http://www.w3.org/2000/svg">
<path d="M12 4C12 1.79086 13.7909 0 16 0H40C42.2091 0 44 1.79086 44 4V36C44 38.2091 42.2091 40 40 40H16C13.7909 40 12 38.2091 12 36V4Z" fill="#D9D9D9"/>
<path d="M4 19C4 16.7909 5.79086 15 8 15H36C38.2091 15 40 16.7909 40 19V31C40 33.2091 38.2091 35 36 35H8C5.79086 35 4 33.2091 4 31V19Z" fill="#00754B"/>
<path d="M13.2895 30L15.5645 26.217L13.4325 22.72H15.4865L16.2145 24.007C16.3185 24.215 16.4225 24.423 16.5265 24.631C16.6392 24.839 16.7519 25.0427 16.8645 25.242H16.9165C17.0032 25.0427 17.0899 24.839 17.1765 24.631C17.2719 24.423 17.3672 24.215 17.4625 24.007L18.0605 22.72H20.0365L17.9045 26.425L20.1795 30H18.1255L17.3195 28.661C17.2069 28.4443 17.0899 28.232 16.9685 28.024C16.8559 27.8073 16.7389 27.5993 16.6175 27.4H16.5525C16.4485 27.5993 16.3445 27.8073 16.2405 28.024C16.1452 28.232 16.0455 28.4443 15.9415 28.661L15.2785 30H13.2895ZM23.2153 30.182C22.7647 30.182 22.4093 30.091 22.1493 29.909C21.8893 29.7183 21.6987 29.4583 21.5773 29.129C21.4647 28.791 21.4083 28.401 21.4083 27.959V19.626H23.3193V28.037C23.3193 28.2537 23.3583 28.4053 23.4363 28.492C23.523 28.5787 23.6097 28.622 23.6963 28.622C23.7397 28.622 23.7787 28.622 23.8133 28.622C23.848 28.6133 23.8957 28.6047 23.9563 28.596L24.1903 30.013C24.0777 30.0563 23.939 30.0953 23.7743 30.13C23.6183 30.1647 23.432 30.182 23.2153 30.182ZM27.5889 30.182C27.1036 30.182 26.6096 30.0867 26.1069 29.896C25.6129 29.7053 25.1839 29.4627 24.8199 29.168L25.6909 27.959C26.0116 28.2017 26.3279 28.3967 26.6399 28.544C26.9606 28.6827 27.2943 28.752 27.6409 28.752C28.0049 28.752 28.2693 28.6827 28.4339 28.544C28.6073 28.3967 28.6939 28.2103 28.6939 27.985C28.6939 27.803 28.6203 27.6513 28.4729 27.53C28.3256 27.4 28.1349 27.2873 27.9009 27.192C27.6669 27.088 27.4243 26.9883 27.1729 26.893C26.8696 26.7717 26.5663 26.6243 26.2629 26.451C25.9683 26.2777 25.7213 26.0567 25.5219 25.788C25.3226 25.5107 25.2229 25.1683 25.2229 24.761C25.2229 24.3277 25.3356 23.9463 25.5609 23.617C25.7863 23.279 26.0983 23.0147 26.4969 22.824C26.9043 22.6333 27.3853 22.538 27.9399 22.538C28.4686 22.538 28.9366 22.629 29.3439 22.811C29.7599 22.993 30.1153 23.201 30.4099 23.435L29.5519 24.592C29.2919 24.4013 29.0319 24.2497 28.7719 24.137C28.5206 24.0243 28.2606 23.968 27.9919 23.968C27.6539 23.968 27.4069 24.033 27.2509 24.163C27.0949 24.293 27.0169 24.462 27.0169 24.67C27.0169 24.8433 27.0819 24.9907 27.2119 25.112C27.3419 25.2247 27.5196 25.3243 27.7449 25.411C27.9703 25.4977 28.2086 25.5887 28.4599 25.684C28.7026 25.7707 28.9409 25.8747 29.1749 25.996C29.4176 26.1087 29.6386 26.2473 29.8379 26.412C30.0373 26.5767 30.1933 26.7803 30.3059 27.023C30.4273 27.257 30.4879 27.543 30.4879 27.881C30.4879 28.3057 30.3753 28.6957 30.1499 29.051C29.9333 29.3977 29.6083 29.675 29.1749 29.883C28.7503 30.0823 28.2216 30.182 27.5889 30.182Z" fill="white"/>
<path d="M34 0H42C43.1046 0 44 0.895431 44 2V10H36C34.8954 10 34 9.10457 34 8V0Z" fill="url(#paint0_linear_11970_4877)"/>
<defs>
<linearGradient id="paint0_linear_11970_4877" x1="44" y1="0" x2="34" y2="10" gradientUnits="userSpaceOnUse">
<stop offset="0.5" stop-color="white"/>
<stop offset="0.5" stop-color="#C6C6C6"/>
</linearGradient>
</defs>
</svg>
