<svg width="44" height="40" viewBox="0 0 44 40" fill="none" xmlns="http://www.w3.org/2000/svg">
<path d="M12 4C12 1.79086 13.7909 0 16 0H40C42.2091 0 44 1.79086 44 4V36C44 38.2091 42.2091 40 40 40H16C13.7909 40 12 38.2091 12 36V4Z" fill="#D9D9D9"/>
<path d="M4 19C4 16.7909 5.79086 15 8 15H36C38.2091 15 40 16.7909 40 19V31C40 33.2091 38.2091 35 36 35H8C5.79086 35 4 33.2091 4 31V19Z" fill="#C40000"/>
<path d="M12.2423 32.795V22.72H13.8023L13.9453 23.474H13.9843C14.2877 23.214 14.6213 22.993 14.9853 22.811C15.358 22.629 15.7393 22.538 16.1293 22.538C16.7273 22.538 17.2387 22.694 17.6633 23.006C18.088 23.3093 18.413 23.7383 18.6383 24.293C18.8723 24.839 18.9893 25.489 18.9893 26.243C18.9893 27.075 18.842 27.7857 18.5473 28.375C18.2527 28.9643 17.867 29.415 17.3903 29.727C16.9223 30.0303 16.424 30.182 15.8953 30.182C15.5833 30.182 15.2713 30.1127 14.9593 29.974C14.656 29.8353 14.3657 29.6403 14.0883 29.389L14.1533 30.572V32.795H12.2423ZM15.4793 28.609C15.7653 28.609 16.0253 28.5267 16.2593 28.362C16.4933 28.1887 16.6797 27.9287 16.8183 27.582C16.957 27.2353 17.0263 26.7977 17.0263 26.269C17.0263 25.8097 16.9743 25.4197 16.8703 25.099C16.7663 24.7697 16.6103 24.5227 16.4023 24.358C16.1943 24.1933 15.9213 24.111 15.5833 24.111C15.3407 24.111 15.1023 24.1717 14.8683 24.293C14.643 24.4143 14.4047 24.6007 14.1533 24.852V28.063C14.3873 28.271 14.617 28.414 14.8423 28.492C15.0677 28.57 15.28 28.609 15.4793 28.609ZM23.1695 30.182C22.5629 30.182 22.0342 30.0303 21.5835 29.727C21.1415 29.4237 20.7992 28.986 20.5565 28.414C20.3139 27.842 20.1925 27.1573 20.1925 26.36C20.1925 25.5713 20.3355 24.8953 20.6215 24.332C20.9162 23.76 21.2975 23.318 21.7655 23.006C22.2335 22.694 22.7275 22.538 23.2475 22.538C23.6549 22.538 23.9972 22.6117 24.2745 22.759C24.5605 22.8977 24.8335 23.0883 25.0935 23.331L25.0285 22.187V19.626H26.9395V30H25.3795L25.2365 29.246H25.1845C24.9159 29.506 24.6082 29.727 24.2615 29.909C23.9149 30.091 23.5509 30.182 23.1695 30.182ZM23.6635 28.609C23.9235 28.609 24.1619 28.5527 24.3785 28.44C24.6039 28.3187 24.8205 28.1237 25.0285 27.855V24.657C24.8119 24.4577 24.5865 24.319 24.3525 24.241C24.1272 24.1543 23.8975 24.111 23.6635 24.111C23.3949 24.111 23.1435 24.1977 22.9095 24.371C22.6842 24.5357 22.5022 24.7827 22.3635 25.112C22.2249 25.4413 22.1555 25.8487 22.1555 26.334C22.1555 26.8367 22.2119 27.257 22.3245 27.595C22.4459 27.933 22.6192 28.1887 22.8445 28.362C23.0699 28.5267 23.3429 28.609 23.6635 28.609ZM29.2998 30V22.135C29.2998 21.6323 29.3821 21.1773 29.5468 20.77C29.7201 20.3627 29.9888 20.042 30.3528 19.808C30.7254 19.5653 31.2151 19.444 31.8218 19.444C32.1164 19.444 32.3808 19.47 32.6148 19.522C32.8488 19.574 33.0481 19.6303 33.2128 19.691L32.8618 21.121C32.6191 21.0083 32.3591 20.952 32.0818 20.952C31.8044 20.952 31.5878 21.043 31.4318 21.225C31.2758 21.407 31.1978 21.6973 31.1978 22.096V30H29.2998ZM28.3118 24.228V22.811L29.4038 22.72H32.5888V24.228H28.3118Z" fill="white"/>
<path d="M34 0H42C43.1046 0 44 0.895431 44 2V10H36C34.8954 10 34 9.10457 34 8V0Z" fill="url(#paint0_linear_11970_4887)"/>
<defs>
<linearGradient id="paint0_linear_11970_4887" x1="44" y1="0" x2="34" y2="10" gradientUnits="userSpaceOnUse">
<stop offset="0.5" stop-color="white"/>
<stop offset="0.5" stop-color="#C6C6C6"/>
</linearGradient>
</defs>
</svg>
