<svg width="44" height="40" viewBox="0 0 44 40" fill="none" xmlns="http://www.w3.org/2000/svg">
<path d="M12 4C12 1.79086 13.7909 0 16 0H40C42.2091 0 44 1.79086 44 4V36C44 38.2091 42.2091 40 40 40H16C13.7909 40 12 38.2091 12 36V4Z" fill="#D9D9D9"/>
<path d="M4 19C4 16.7909 5.79086 15 8 15H36C38.2091 15 40 16.7909 40 19V31C40 33.2091 38.2091 35 36 35H8C5.79086 35 4 33.2091 4 31V19Z" fill="#932809"/>
<path d="M12.1344 32.795V22.72H13.6944L13.8374 23.474H13.8764C14.1798 23.214 14.5134 22.993 14.8774 22.811C15.2501 22.629 15.6314 22.538 16.0214 22.538C16.6194 22.538 17.1308 22.694 17.5554 23.006C17.9801 23.3093 18.3051 23.7383 18.5304 24.293C18.7644 24.839 18.8814 25.489 18.8814 26.243C18.8814 27.075 18.7341 27.7857 18.4394 28.375C18.1448 28.9643 17.7591 29.415 17.2824 29.727C16.8144 30.0303 16.3161 30.182 15.7874 30.182C15.4754 30.182 15.1634 30.1127 14.8514 29.974C14.5481 29.8353 14.2578 29.6403 13.9804 29.389L14.0454 30.572V32.795H12.1344ZM15.3714 28.609C15.6574 28.609 15.9174 28.5267 16.1514 28.362C16.3854 28.1887 16.5718 27.9287 16.7104 27.582C16.8491 27.2353 16.9184 26.7977 16.9184 26.269C16.9184 25.8097 16.8664 25.4197 16.7624 25.099C16.6584 24.7697 16.5024 24.5227 16.2944 24.358C16.0864 24.1933 15.8134 24.111 15.4754 24.111C15.2328 24.111 14.9944 24.1717 14.7604 24.293C14.5351 24.4143 14.2968 24.6007 14.0454 24.852V28.063C14.2794 28.271 14.5091 28.414 14.7344 28.492C14.9598 28.57 15.1721 28.609 15.3714 28.609ZM20.5006 32.795V22.72H22.0606L22.2036 23.474H22.2426C22.546 23.214 22.8796 22.993 23.2436 22.811C23.6163 22.629 23.9976 22.538 24.3876 22.538C24.9856 22.538 25.497 22.694 25.9216 23.006C26.3463 23.3093 26.6713 23.7383 26.8966 24.293C27.1306 24.839 27.2476 25.489 27.2476 26.243C27.2476 27.075 27.1003 27.7857 26.8056 28.375C26.511 28.9643 26.1253 29.415 25.6486 29.727C25.1806 30.0303 24.6823 30.182 24.1536 30.182C23.8416 30.182 23.5296 30.1127 23.2176 29.974C22.9143 29.8353 22.624 29.6403 22.3466 29.389L22.4116 30.572V32.795H20.5006ZM23.7376 28.609C24.0236 28.609 24.2836 28.5267 24.5176 28.362C24.7516 28.1887 24.938 27.9287 25.0766 27.582C25.2153 27.2353 25.2846 26.7977 25.2846 26.269C25.2846 25.8097 25.2326 25.4197 25.1286 25.099C25.0246 24.7697 24.8686 24.5227 24.6606 24.358C24.4526 24.1933 24.1796 24.111 23.8416 24.111C23.599 24.111 23.3606 24.1717 23.1266 24.293C22.9013 24.4143 22.663 24.6007 22.4116 24.852V28.063C22.6456 28.271 22.8753 28.414 23.1006 28.492C23.326 28.57 23.5383 28.609 23.7376 28.609ZM31.1129 30.182C30.5409 30.182 30.0772 30.0693 29.7219 29.844C29.3666 29.61 29.1109 29.2893 28.9549 28.882C28.7989 28.4747 28.7209 28.0023 28.7209 27.465V24.228H27.6939V22.811L28.8249 22.72L29.0459 20.757H30.6189V22.72H32.4259V24.228H30.6189V27.452C30.6189 27.868 30.7056 28.1757 30.8789 28.375C31.0522 28.5743 31.2992 28.674 31.6199 28.674C31.7412 28.674 31.8669 28.6567 31.9969 28.622C32.1269 28.5873 32.2396 28.5527 32.3349 28.518L32.6599 29.909C32.4606 29.9697 32.2309 30.0303 31.9709 30.091C31.7196 30.1517 31.4336 30.182 31.1129 30.182Z" fill="white"/>
<path d="M34 0H42C43.1046 0 44 0.895431 44 2V10H36C34.8954 10 34 9.10457 34 8V0Z" fill="url(#paint0_linear_11970_4882)"/>
<defs>
<linearGradient id="paint0_linear_11970_4882" x1="44" y1="0" x2="34" y2="10" gradientUnits="userSpaceOnUse">
<stop offset="0.5" stop-color="white"/>
<stop offset="0.5" stop-color="#C6C6C6"/>
</linearGradient>
</defs>
</svg>
