<svg width="44" height="40" viewBox="0 0 44 40" fill="none" xmlns="http://www.w3.org/2000/svg">
<path d="M12 4C12 1.79086 13.7909 0 16 0H40C42.2091 0 44 1.79086 44 4V36C44 38.2091 42.2091 40 40 40H16C13.7909 40 12 38.2091 12 36V4Z" fill="#D9D9D9"/>
<path d="M4 19C4 16.7909 5.79086 15 8 15H36C38.2091 15 40 16.7909 40 19V31C40 33.2091 38.2091 35 36 35H8C5.79086 35 4 33.2091 4 31V19Z" fill="#00529B"/>
<path d="M13.9083 30.182C13.3016 30.182 12.773 30.0303 12.3223 29.727C11.8803 29.4237 11.538 28.986 11.2953 28.414C11.0526 27.842 10.9313 27.1573 10.9313 26.36C10.9313 25.5713 11.0743 24.8953 11.3603 24.332C11.655 23.76 12.0363 23.318 12.5043 23.006C12.9723 22.694 13.4663 22.538 13.9863 22.538C14.3936 22.538 14.736 22.6117 15.0133 22.759C15.2993 22.8977 15.5723 23.0883 15.8323 23.331L15.7673 22.187V19.626H17.6783V30H16.1183L15.9753 29.246H15.9233C15.6546 29.506 15.347 29.727 15.0003 29.909C14.6536 30.091 14.2896 30.182 13.9083 30.182ZM14.4023 28.609C14.6623 28.609 14.9006 28.5527 15.1173 28.44C15.3426 28.3187 15.5593 28.1237 15.7673 27.855V24.657C15.5506 24.4577 15.3253 24.319 15.0913 24.241C14.866 24.1543 14.6363 24.111 14.4023 24.111C14.1336 24.111 13.8823 24.1977 13.6483 24.371C13.423 24.5357 13.241 24.7827 13.1023 25.112C12.9636 25.4413 12.8943 25.8487 12.8943 26.334C12.8943 26.8367 12.9506 27.257 13.0633 27.595C13.1846 27.933 13.358 28.1887 13.5833 28.362C13.8086 28.5267 14.0816 28.609 14.4023 28.609ZM22.7555 30.182C22.1489 30.182 21.5769 30.0303 21.0395 29.727C20.5109 29.4237 20.0819 28.9903 19.7525 28.427C19.4232 27.855 19.2585 27.166 19.2585 26.36C19.2585 25.554 19.4232 24.8693 19.7525 24.306C20.0819 23.734 20.5109 23.2963 21.0395 22.993C21.5769 22.6897 22.1489 22.538 22.7555 22.538C23.2149 22.538 23.6525 22.6247 24.0685 22.798C24.4845 22.9713 24.8572 23.2227 25.1865 23.552C25.5159 23.8727 25.7759 24.2713 25.9665 24.748C26.1572 25.216 26.2525 25.7533 26.2525 26.36C26.2525 27.166 26.0879 27.855 25.7585 28.427C25.4292 28.9903 24.9959 29.4237 24.4585 29.727C23.9299 30.0303 23.3622 30.182 22.7555 30.182ZM22.7555 28.622C23.0849 28.622 23.3622 28.531 23.5875 28.349C23.8215 28.1583 23.9949 27.894 24.1075 27.556C24.2289 27.218 24.2895 26.8193 24.2895 26.36C24.2895 25.9007 24.2289 25.502 24.1075 25.164C23.9949 24.826 23.8215 24.566 23.5875 24.384C23.3622 24.1933 23.0849 24.098 22.7555 24.098C22.4262 24.098 22.1445 24.1933 21.9105 24.384C21.6852 24.566 21.5119 24.826 21.3905 25.164C21.2779 25.502 21.2215 25.9007 21.2215 26.36C21.2215 26.8193 21.2779 27.218 21.3905 27.556C21.5119 27.894 21.6852 28.1583 21.9105 28.349C22.1445 28.531 22.4262 28.622 22.7555 28.622ZM30.9452 30.182C30.2779 30.182 29.6756 30.0303 29.1382 29.727C28.6009 29.4237 28.1762 28.9903 27.8642 28.427C27.5522 27.855 27.3962 27.166 27.3962 26.36C27.3962 25.554 27.5652 24.8693 27.9032 24.306C28.2499 23.734 28.7049 23.2963 29.2682 22.993C29.8402 22.6897 30.4556 22.538 31.1142 22.538C31.5649 22.538 31.9636 22.616 32.3102 22.772C32.6569 22.9193 32.9646 23.1143 33.2332 23.357L32.3232 24.566C32.1499 24.41 31.9722 24.293 31.7902 24.215C31.6082 24.137 31.4176 24.098 31.2182 24.098C30.8456 24.098 30.5162 24.1933 30.2302 24.384C29.9529 24.566 29.7362 24.826 29.5802 25.164C29.4329 25.502 29.3592 25.9007 29.3592 26.36C29.3592 26.8193 29.4329 27.218 29.5802 27.556C29.7362 27.894 29.9486 28.1583 30.2172 28.349C30.4946 28.531 30.8066 28.622 31.1532 28.622C31.4132 28.622 31.6646 28.5657 31.9072 28.453C32.1499 28.3403 32.3709 28.2017 32.5702 28.037L33.3242 29.298C32.9776 29.6013 32.5919 29.8267 32.1672 29.974C31.7512 30.1127 31.3439 30.182 30.9452 30.182Z" fill="white"/>
<path d="M34 0H42C43.1046 0 44 0.895431 44 2V10H36C34.8954 10 34 9.10457 34 8V0Z" fill="url(#paint0_linear_11970_4875)"/>
<defs>
<linearGradient id="paint0_linear_11970_4875" x1="44" y1="0" x2="34" y2="10" gradientUnits="userSpaceOnUse">
<stop offset="0.5" stop-color="white"/>
<stop offset="0.5" stop-color="#C6C6C6"/>
</linearGradient>
</defs>
</svg>
