<svg width="44" height="40" viewBox="0 0 44 40" fill="none" xmlns="http://www.w3.org/2000/svg">
<path d="M12 4C12 1.79086 13.7909 0 16 0H40C42.2091 0 44 1.79086 44 4V36C44 38.2091 42.2091 40 40 40H16C13.7909 40 12 38.2091 12 36V4Z" fill="#D9D9D9"/>
<path d="M4 19C4 16.7909 5.79086 15 8 15H36C38.2091 15 40 16.7909 40 19V31C40 33.2091 38.2091 35 36 35H8C5.79086 35 4 33.2091 4 31V19Z" fill="#D04500"/>
<path d="M13.0559 30V28.986L16.3189 24.228H13.4199V22.72H18.6979V23.747L15.4349 28.492H18.8149V30H13.0559ZM20.1896 30V22.72H22.1006V30H20.1896ZM21.1516 21.537C20.8136 21.537 20.5449 21.446 20.3456 21.264C20.1463 21.0733 20.0466 20.8177 20.0466 20.497C20.0466 20.185 20.1463 19.9337 20.3456 19.743C20.5449 19.5523 20.8136 19.457 21.1516 19.457C21.4723 19.457 21.7366 19.5523 21.9446 19.743C22.1526 19.9337 22.2566 20.185 22.2566 20.497C22.2566 20.8177 22.1526 21.0733 21.9446 21.264C21.7366 21.446 21.4723 21.537 21.1516 21.537ZM24.1378 32.795V22.72H25.6978L25.8408 23.474H25.8798C26.1832 23.214 26.5168 22.993 26.8808 22.811C27.2535 22.629 27.6348 22.538 28.0248 22.538C28.6228 22.538 29.1342 22.694 29.5588 23.006C29.9835 23.3093 30.3085 23.7383 30.5338 24.293C30.7678 24.839 30.8848 25.489 30.8848 26.243C30.8848 27.075 30.7375 27.7857 30.4428 28.375C30.1482 28.9643 29.7625 29.415 29.2858 29.727C28.8178 30.0303 28.3195 30.182 27.7908 30.182C27.4788 30.182 27.1668 30.1127 26.8548 29.974C26.5515 29.8353 26.2612 29.6403 25.9838 29.389L26.0488 30.572V32.795H24.1378ZM27.3748 28.609C27.6608 28.609 27.9208 28.5267 28.1548 28.362C28.3888 28.1887 28.5752 27.9287 28.7138 27.582C28.8525 27.2353 28.9218 26.7977 28.9218 26.269C28.9218 25.8097 28.8698 25.4197 28.7658 25.099C28.6618 24.7697 28.5058 24.5227 28.2978 24.358C28.0898 24.1933 27.8168 24.111 27.4788 24.111C27.2362 24.111 26.9978 24.1717 26.7638 24.293C26.5385 24.4143 26.3002 24.6007 26.0488 24.852V28.063C26.2828 28.271 26.5125 28.414 26.7378 28.492C26.9632 28.57 27.1755 28.609 27.3748 28.609Z" fill="white"/>
<path d="M34 0H42C43.1046 0 44 0.895431 44 2V10H36C34.8954 10 34 9.10457 34 8V0Z" fill="url(#paint0_linear_11970_4892)"/>
<defs>
<linearGradient id="paint0_linear_11970_4892" x1="44" y1="0" x2="34" y2="10" gradientUnits="userSpaceOnUse">
<stop offset="0.5" stop-color="white"/>
<stop offset="0.5" stop-color="#C6C6C6"/>
</linearGradient>
</defs>
</svg>
