<svg width="44" height="40" viewBox="0 0 44 40" fill="none" xmlns="http://www.w3.org/2000/svg">
<path d="M12 4C12 1.79086 13.7909 0 16 0H40C42.2091 0 44 1.79086 44 4V36C44 38.2091 42.2091 40 40 40H16C13.7909 40 12 38.2091 12 36V4Z" fill="#D9D9D9"/>
<path d="M4 19C4 16.7909 5.79086 15 8 15H36C38.2091 15 40 16.7909 40 19V31C40 33.2091 38.2091 35 36 35H8C5.79086 35 4 33.2091 4 31V19Z" fill="#0E5662"/>
<path d="M10.8014 32.795V22.72H12.3614L12.5044 23.474H12.5434C12.8467 23.214 13.1804 22.993 13.5444 22.811C13.9171 22.629 14.2984 22.538 14.6884 22.538C15.2864 22.538 15.7977 22.694 16.2224 23.006C16.6471 23.3093 16.9721 23.7383 17.1974 24.293C17.4314 24.839 17.5484 25.489 17.5484 26.243C17.5484 27.075 17.4011 27.7857 17.1064 28.375C16.8117 28.9643 16.4261 29.415 15.9494 29.727C15.4814 30.0303 14.9831 30.182 14.4544 30.182C14.1424 30.182 13.8304 30.1127 13.5184 29.974C13.2151 29.8353 12.9247 29.6403 12.6474 29.389L12.7124 30.572V32.795H10.8014ZM14.0384 28.609C14.3244 28.609 14.5844 28.5267 14.8184 28.362C15.0524 28.1887 15.2387 27.9287 15.3774 27.582C15.5161 27.2353 15.5854 26.7977 15.5854 26.269C15.5854 25.8097 15.5334 25.4197 15.4294 25.099C15.3254 24.7697 15.1694 24.5227 14.9614 24.358C14.7534 24.1933 14.4804 24.111 14.1424 24.111C13.8997 24.111 13.6614 24.1717 13.4274 24.293C13.2021 24.4143 12.9637 24.6007 12.7124 24.852V28.063C12.9464 28.271 13.1761 28.414 13.4014 28.492C13.6267 28.57 13.8391 28.609 14.0384 28.609ZM19.1676 30V22.72H20.7276L20.8706 23.682H20.9096C21.2303 23.37 21.5813 23.1013 21.9626 22.876C22.344 22.6507 22.7816 22.538 23.2756 22.538C24.0643 22.538 24.6363 22.798 24.9916 23.318C25.347 23.8293 25.5246 24.5443 25.5246 25.463V30H23.6136V25.697C23.6136 25.1337 23.5313 24.7393 23.3666 24.514C23.2106 24.2887 22.9506 24.176 22.5866 24.176C22.292 24.176 22.032 24.2453 21.8066 24.384C21.59 24.5227 21.3473 24.7263 21.0786 24.995V30H19.1676ZM30.0568 33.159C29.4848 33.159 28.9691 33.0897 28.5098 32.951C28.0504 32.821 27.6864 32.6173 27.4178 32.34C27.1578 32.0713 27.0278 31.7203 27.0278 31.287C27.0278 30.9837 27.1144 30.702 27.2878 30.442C27.4611 30.182 27.7211 29.961 28.0678 29.779V29.714C27.8771 29.5927 27.7168 29.4323 27.5868 29.233C27.4654 29.0337 27.4048 28.7823 27.4048 28.479C27.4048 28.2103 27.4828 27.959 27.6388 27.725C27.8034 27.4823 27.9941 27.283 28.2108 27.127V27.075C27.9594 26.893 27.7341 26.6373 27.5348 26.308C27.3354 25.9787 27.2358 25.5973 27.2358 25.164C27.2358 24.592 27.3701 24.111 27.6388 23.721C27.9161 23.331 28.2801 23.0363 28.7308 22.837C29.1814 22.6377 29.6581 22.538 30.1608 22.538C30.3774 22.538 30.5768 22.5553 30.7588 22.59C30.9494 22.6247 31.1228 22.668 31.2788 22.72H33.8918V24.124H32.6568C32.7521 24.254 32.8301 24.4143 32.8908 24.605C32.9514 24.7957 32.9818 25.0037 32.9818 25.229C32.9818 25.775 32.8561 26.2343 32.6048 26.607C32.3534 26.971 32.0154 27.244 31.5908 27.426C31.1661 27.608 30.6894 27.699 30.1608 27.699C30.0308 27.699 29.8834 27.686 29.7188 27.66C29.5541 27.6253 29.3894 27.582 29.2248 27.53C29.1294 27.6167 29.0514 27.7077 28.9908 27.803C28.9388 27.8897 28.9128 28.011 28.9128 28.167C28.9128 28.349 28.9951 28.492 29.1598 28.596C29.3331 28.7 29.6321 28.752 30.0568 28.752H31.3048C32.1801 28.752 32.8518 28.8993 33.3198 29.194C33.7878 29.48 34.0218 29.9393 34.0218 30.572C34.0218 31.066 33.8571 31.5037 33.5278 31.885C33.2071 32.275 32.7478 32.5827 32.1498 32.808C31.5604 33.042 30.8628 33.159 30.0568 33.159ZM30.1608 26.516C30.3774 26.516 30.5724 26.464 30.7458 26.36C30.9191 26.256 31.0578 26.1043 31.1618 25.905C31.2658 25.697 31.3178 25.45 31.3178 25.164C31.3178 24.878 31.2658 24.6397 31.1618 24.449C31.0578 24.2497 30.9191 24.1023 30.7458 24.007C30.5724 23.903 30.3774 23.851 30.1608 23.851C29.9528 23.851 29.7621 23.903 29.5888 24.007C29.4154 24.1023 29.2768 24.2497 29.1728 24.449C29.0774 24.6397 29.0298 24.878 29.0298 25.164C29.0298 25.45 29.0774 25.697 29.1728 25.905C29.2768 26.1043 29.4154 26.256 29.5888 26.36C29.7621 26.464 29.9528 26.516 30.1608 26.516ZM30.3428 31.937C30.7154 31.937 31.0361 31.8893 31.3048 31.794C31.5821 31.6987 31.7988 31.573 31.9548 31.417C32.1108 31.261 32.1888 31.0877 32.1888 30.897C32.1888 30.637 32.0848 30.4593 31.8768 30.364C31.6688 30.2773 31.3698 30.234 30.9798 30.234H30.0828C29.8661 30.234 29.6798 30.2253 29.5238 30.208C29.3678 30.1993 29.2204 30.1777 29.0818 30.143C28.9171 30.273 28.7958 30.4073 28.7178 30.546C28.6484 30.6933 28.6138 30.845 28.6138 31.001C28.6138 31.2957 28.7698 31.5253 29.0818 31.69C29.3938 31.8547 29.8141 31.937 30.3428 31.937Z" fill="white"/>
<path d="M34 0H42C43.1046 0 44 0.895431 44 2V10H36C34.8954 10 34 9.10457 34 8V0Z" fill="url(#paint0_linear_14703_121)"/>
<defs>
<linearGradient id="paint0_linear_14703_121" x1="44" y1="0" x2="34" y2="10" gradientUnits="userSpaceOnUse">
<stop offset="0.5" stop-color="white"/>
<stop offset="0.5" stop-color="#C6C6C6"/>
</linearGradient>
</defs>
</svg>
