<svg width="44" height="40" viewBox="0 0 44 40" fill="none" xmlns="http://www.w3.org/2000/svg">
<path d="M12 4C12 1.79086 13.7909 0 16 0H40C42.2091 0 44 1.79086 44 4V36C44 38.2091 42.2091 40 40 40H16C13.7909 40 12 38.2091 12 36V4Z" fill="#D9D9D9"/>
<path d="M4 19C4 16.7909 5.79086 15 8 15H36C38.2091 15 40 16.7909 40 19V31C40 33.2091 38.2091 35 36 35H8C5.79086 35 4 33.2091 4 31V19Z" fill="#2D74D4"/>
<path d="M8.74477 30V22.72H10.3048L10.4478 23.695H10.4868C10.7901 23.383 11.1194 23.1143 11.4748 22.889C11.8301 22.655 12.2461 22.538 12.7228 22.538C13.2428 22.538 13.6588 22.6507 13.9708 22.876C14.2914 23.0927 14.5384 23.4047 14.7118 23.812C15.0584 23.4567 15.4138 23.1577 15.7778 22.915C16.1504 22.6637 16.5708 22.538 17.0388 22.538C17.8188 22.538 18.3864 22.798 18.7418 23.318C19.1058 23.8293 19.2878 24.5443 19.2878 25.463V30H17.3898V25.697C17.3898 25.1337 17.3074 24.7393 17.1428 24.514C16.9781 24.2887 16.7224 24.176 16.3758 24.176C16.1678 24.176 15.9468 24.2453 15.7128 24.384C15.4874 24.514 15.2404 24.7177 14.9718 24.995V30H13.0608V25.697C13.0608 25.1337 12.9784 24.7393 12.8138 24.514C12.6491 24.2887 12.3934 24.176 12.0468 24.176C11.8474 24.176 11.6264 24.2453 11.3838 24.384C11.1498 24.514 10.9071 24.7177 10.6558 24.995V30H8.74477ZM21.275 32.795V22.72H22.835L22.978 23.474H23.017C23.3204 23.214 23.654 22.993 24.018 22.811C24.3907 22.629 24.772 22.538 25.162 22.538C25.76 22.538 26.2714 22.694 26.696 23.006C27.1207 23.3093 27.4457 23.7383 27.671 24.293C27.905 24.839 28.022 25.489 28.022 26.243C28.022 27.075 27.8747 27.7857 27.58 28.375C27.2854 28.9643 26.8997 29.415 26.423 29.727C25.955 30.0303 25.4567 30.182 24.928 30.182C24.616 30.182 24.304 30.1127 23.992 29.974C23.6887 29.8353 23.3984 29.6403 23.121 29.389L23.186 30.572V32.795H21.275ZM24.512 28.609C24.798 28.609 25.058 28.5267 25.292 28.362C25.526 28.1887 25.7124 27.9287 25.851 27.582C25.9897 27.2353 26.059 26.7977 26.059 26.269C26.059 25.8097 26.007 25.4197 25.903 25.099C25.799 24.7697 25.643 24.5227 25.435 24.358C25.227 24.1933 24.954 24.111 24.616 24.111C24.3734 24.111 24.135 24.1717 23.901 24.293C23.6757 24.4143 23.4374 24.6007 23.186 24.852V28.063C23.42 28.271 23.6497 28.414 23.875 28.492C24.1004 28.57 24.3127 28.609 24.512 28.609ZM32.1633 30.182C31.6606 30.182 31.2099 30.1213 30.8113 30C30.4126 29.8873 30.0573 29.7313 29.7453 29.532C29.4419 29.324 29.1776 29.0943 28.9523 28.843L29.8493 27.634C30.1439 27.9027 30.4646 28.1367 30.8113 28.336C31.1666 28.5267 31.5609 28.622 31.9943 28.622C32.3236 28.622 32.6096 28.5743 32.8523 28.479C33.1036 28.375 33.2943 28.2277 33.4243 28.037C33.5629 27.8463 33.6323 27.6167 33.6323 27.348C33.6323 27.0447 33.5543 26.7847 33.3983 26.568C33.2509 26.3427 32.9866 26.1737 32.6053 26.061C32.2239 25.9397 31.6866 25.879 30.9933 25.879V24.501C31.5826 24.501 32.0463 24.4403 32.3843 24.319C32.7223 24.1977 32.9606 24.033 33.0993 23.825C33.2466 23.617 33.3203 23.3787 33.3203 23.11C33.3203 22.7373 33.2076 22.4513 32.9823 22.252C32.7569 22.0527 32.4406 21.953 32.0333 21.953C31.6953 21.953 31.3789 22.031 31.0843 22.187C30.7983 22.3343 30.5123 22.5423 30.2263 22.811L29.2383 21.641C29.6629 21.277 30.1093 20.9867 30.5773 20.77C31.0453 20.5533 31.5609 20.445 32.1243 20.445C32.7396 20.445 33.2813 20.5447 33.7493 20.744C34.2259 20.9347 34.5943 21.2207 34.8543 21.602C35.1143 21.9747 35.2443 22.4297 35.2443 22.967C35.2443 23.4697 35.1056 23.8987 34.8283 24.254C34.5509 24.6007 34.1566 24.878 33.6453 25.086V25.151C34.0006 25.2463 34.3213 25.398 34.6073 25.606C34.9019 25.814 35.1316 26.074 35.2963 26.386C35.4696 26.6893 35.5563 27.049 35.5563 27.465C35.5563 28.037 35.4003 28.5267 35.0883 28.934C34.7849 29.3413 34.3733 29.6533 33.8533 29.87C33.3419 30.078 32.7786 30.182 32.1633 30.182Z" fill="white"/>
<path d="M34 0H42C43.1046 0 44 0.895431 44 2V10H36C34.8954 10 34 9.10457 34 8V0Z" fill="url(#paint0_linear_11970_4907)"/>
<defs>
<linearGradient id="paint0_linear_11970_4907" x1="44" y1="0" x2="34" y2="10" gradientUnits="userSpaceOnUse">
<stop offset="0.5" stop-color="white"/>
<stop offset="0.5" stop-color="#C6C6C6"/>
</linearGradient>
</defs>
</svg>
