<svg width="44" height="40" viewBox="0 0 44 40" fill="none" xmlns="http://www.w3.org/2000/svg">
<path d="M12 4C12 1.79086 13.7909 0 16 0H40C42.2091 0 44 1.79086 44 4V36C44 38.2091 42.2091 40 40 40H16C13.7909 40 12 38.2091 12 36V4Z" fill="#D9D9D9"/>
<path d="M4 19C4 16.7909 5.79086 15 8 15H36C38.2091 15 40 16.7909 40 19V31C40 33.2091 38.2091 35 36 35H8C5.79086 35 4 33.2091 4 31V19Z" fill="#480000"/>
<path d="M8.61442 30L6.74242 22.72H8.64042L9.44642 26.308C9.50708 26.672 9.56342 27.0273 9.61542 27.374C9.66742 27.7207 9.72375 28.076 9.78442 28.44H9.84942C9.92742 28.076 10.0011 27.7207 10.0704 27.374C10.1398 27.0187 10.2178 26.6633 10.3044 26.308L11.1884 22.72H12.8784L13.7884 26.308C13.8751 26.672 13.9531 27.0273 14.0224 27.374C14.0918 27.7207 14.1698 28.076 14.2564 28.44H14.3084C14.3778 28.076 14.4384 27.7207 14.4904 27.374C14.5511 27.0273 14.6161 26.672 14.6854 26.308L15.4524 22.72H17.2334L15.4394 30H13.1904L12.4234 26.828C12.3454 26.4813 12.2718 26.139 12.2024 25.801C12.1418 25.4543 12.0724 25.086 11.9944 24.696H11.9294C11.8688 25.086 11.8081 25.4543 11.7474 25.801C11.6868 26.1477 11.6174 26.49 11.5394 26.828L10.7984 30H8.61442ZM18.6281 30V22.72H20.1881L20.3311 23.695H20.3701C20.6734 23.383 21.0027 23.1143 21.3581 22.889C21.7134 22.655 22.1294 22.538 22.6061 22.538C23.1261 22.538 23.5421 22.6507 23.8541 22.876C24.1747 23.0927 24.4217 23.4047 24.5951 23.812C24.9417 23.4567 25.2971 23.1577 25.6611 22.915C26.0337 22.6637 26.4541 22.538 26.9221 22.538C27.7021 22.538 28.2697 22.798 28.6251 23.318C28.9891 23.8293 29.1711 24.5443 29.1711 25.463V30H27.2731V25.697C27.2731 25.1337 27.1907 24.7393 27.0261 24.514C26.8614 24.2887 26.6057 24.176 26.2591 24.176C26.0511 24.176 25.8301 24.2453 25.5961 24.384C25.3707 24.514 25.1237 24.7177 24.8551 24.995V30H22.9441V25.697C22.9441 25.1337 22.8617 24.7393 22.6971 24.514C22.5324 24.2887 22.2767 24.176 21.9301 24.176C21.7307 24.176 21.5097 24.2453 21.2671 24.384C21.0331 24.514 20.7904 24.7177 20.5391 24.995V30H18.6281ZM32.7963 30L30.3133 22.72H32.2373L33.2903 26.347C33.3943 26.711 33.494 27.0793 33.5893 27.452C33.6933 27.816 33.793 28.1843 33.8883 28.557H33.9533C34.0487 28.1843 34.144 27.816 34.2393 27.452C34.3433 27.0793 34.443 26.711 34.5383 26.347L35.6043 22.72H37.4373L35.0063 30H32.7963Z" fill="white"/>
<path d="M34 0H42C43.1046 0 44 0.895431 44 2V10H36C34.8954 10 34 9.10457 34 8V0Z" fill="url(#paint0_linear_11970_4917)"/>
<defs>
<linearGradient id="paint0_linear_11970_4917" x1="44" y1="0" x2="34" y2="10" gradientUnits="userSpaceOnUse">
<stop offset="0.5" stop-color="white"/>
<stop offset="0.5" stop-color="#C6C6C6"/>
</linearGradient>
</defs>
</svg>
