<svg width="44" height="40" viewBox="0 0 44 40" fill="none" xmlns="http://www.w3.org/2000/svg">
<path d="M12 4C12 1.79086 13.7909 0 16 0H40C42.2091 0 44 1.79086 44 4V36C44 38.2091 42.2091 40 40 40H16C13.7909 40 12 38.2091 12 36V4Z" fill="#D9D9D9"/>
<path d="M4 19C4 16.7909 5.79086 15 8 15H36C38.2091 15 40 16.7909 40 19V31C40 33.2091 38.2091 35 36 35H8C5.79086 35 4 33.2091 4 31V19Z" fill="#4231D8"/>
<path d="M8.80271 32.977C8.51671 32.977 8.27838 32.9553 8.08771 32.912C7.88838 32.8773 7.71938 32.8297 7.58071 32.769L7.91871 31.365C8.01405 31.3997 8.11371 31.4257 8.21771 31.443C8.32171 31.4603 8.42571 31.469 8.52971 31.469C8.83305 31.469 9.04105 31.365 9.15371 31.157C9.26638 30.949 9.32271 30.6413 9.32271 30.234V22.72H11.2467V30.182C11.2467 30.702 11.1687 31.17 11.0127 31.586C10.8654 32.0107 10.6097 32.3487 10.2457 32.6C9.89038 32.8513 9.40938 32.977 8.80271 32.977ZM10.2717 21.537C9.95105 21.537 9.68671 21.446 9.47871 21.264C9.27071 21.0733 9.16671 20.8177 9.16671 20.497C9.16671 20.185 9.27071 19.9337 9.47871 19.743C9.68671 19.5523 9.95105 19.457 10.2717 19.457C10.601 19.457 10.8697 19.5523 11.0777 19.743C11.2857 19.9337 11.3897 20.185 11.3897 20.497C11.3897 20.8177 11.2857 21.0733 11.0777 21.264C10.8697 21.446 10.601 21.537 10.2717 21.537ZM13.2833 32.795V22.72H14.8433L14.9863 23.474H15.0253C15.3287 23.214 15.6623 22.993 16.0263 22.811C16.399 22.629 16.7803 22.538 17.1703 22.538C17.7683 22.538 18.2797 22.694 18.7043 23.006C19.129 23.3093 19.454 23.7383 19.6793 24.293C19.9133 24.839 20.0303 25.489 20.0303 26.243C20.0303 27.075 19.883 27.7857 19.5883 28.375C19.2937 28.9643 18.908 29.415 18.4313 29.727C17.9633 30.0303 17.465 30.182 16.9363 30.182C16.6243 30.182 16.3123 30.1127 16.0003 29.974C15.697 29.8353 15.4067 29.6403 15.1293 29.389L15.1943 30.572V32.795H13.2833ZM16.5203 28.609C16.8063 28.609 17.0663 28.5267 17.3003 28.362C17.5343 28.1887 17.7207 27.9287 17.8593 27.582C17.998 27.2353 18.0673 26.7977 18.0673 26.269C18.0673 25.8097 18.0153 25.4197 17.9113 25.099C17.8073 24.7697 17.6513 24.5227 17.4433 24.358C17.2353 24.1933 16.9623 24.111 16.6243 24.111C16.3817 24.111 16.1433 24.1717 15.9093 24.293C15.684 24.4143 15.4457 24.6007 15.1943 24.852V28.063C15.4283 28.271 15.658 28.414 15.8833 28.492C16.1087 28.57 16.321 28.609 16.5203 28.609ZM24.8216 30.182C24.1456 30.182 23.5346 30.0303 22.9886 29.727C22.4426 29.4237 22.0049 28.986 21.6756 28.414C21.3549 27.842 21.1946 27.1573 21.1946 26.36C21.1946 25.7707 21.2856 25.242 21.4676 24.774C21.6582 24.306 21.9139 23.9073 22.2346 23.578C22.5639 23.24 22.9279 22.9843 23.3266 22.811C23.7339 22.629 24.1542 22.538 24.5876 22.538C25.2549 22.538 25.8139 22.6897 26.2646 22.993C26.7152 23.2877 27.0532 23.6993 27.2786 24.228C27.5126 24.748 27.6296 25.346 27.6296 26.022C27.6296 26.1953 27.6209 26.3643 27.6036 26.529C27.5862 26.685 27.5646 26.8107 27.5386 26.906H23.0536C23.1056 27.296 23.2226 27.6253 23.4046 27.894C23.5866 28.1627 23.8206 28.3663 24.1066 28.505C24.3926 28.635 24.7176 28.7 25.0816 28.7C25.3762 28.7 25.6536 28.661 25.9136 28.583C26.1736 28.4963 26.4379 28.3707 26.7066 28.206L27.3566 29.376C27.0012 29.6187 26.6026 29.8137 26.1606 29.961C25.7186 30.1083 25.2722 30.182 24.8216 30.182ZM23.0146 25.619H25.9916C25.9916 25.1337 25.8789 24.748 25.6536 24.462C25.4369 24.1673 25.0902 24.02 24.6136 24.02C24.3622 24.02 24.1239 24.0807 23.8986 24.202C23.6732 24.3147 23.4826 24.4923 23.3266 24.735C23.1706 24.969 23.0666 25.2637 23.0146 25.619ZM31.5484 33.159C30.9764 33.159 30.4608 33.0897 30.0014 32.951C29.5421 32.821 29.1781 32.6173 28.9094 32.34C28.6494 32.0713 28.5194 31.7203 28.5194 31.287C28.5194 30.9837 28.6061 30.702 28.7794 30.442C28.9528 30.182 29.2128 29.961 29.5594 29.779V29.714C29.3688 29.5927 29.2084 29.4323 29.0784 29.233C28.9571 29.0337 28.8964 28.7823 28.8964 28.479C28.8964 28.2103 28.9744 27.959 29.1304 27.725C29.2951 27.4823 29.4858 27.283 29.7024 27.127V27.075C29.4511 26.893 29.2258 26.6373 29.0264 26.308C28.8271 25.9787 28.7274 25.5973 28.7274 25.164C28.7274 24.592 28.8618 24.111 29.1304 23.721C29.4078 23.331 29.7718 23.0363 30.2224 22.837C30.6731 22.6377 31.1498 22.538 31.6524 22.538C31.8691 22.538 32.0684 22.5553 32.2504 22.59C32.4411 22.6247 32.6144 22.668 32.7704 22.72H35.3834V24.124H34.1484C34.2438 24.254 34.3218 24.4143 34.3824 24.605C34.4431 24.7957 34.4734 25.0037 34.4734 25.229C34.4734 25.775 34.3478 26.2343 34.0964 26.607C33.8451 26.971 33.5071 27.244 33.0824 27.426C32.6578 27.608 32.1811 27.699 31.6524 27.699C31.5224 27.699 31.3751 27.686 31.2104 27.66C31.0458 27.6253 30.8811 27.582 30.7164 27.53C30.6211 27.6167 30.5431 27.7077 30.4824 27.803C30.4304 27.8897 30.4044 28.011 30.4044 28.167C30.4044 28.349 30.4868 28.492 30.6514 28.596C30.8248 28.7 31.1238 28.752 31.5484 28.752H32.7964C33.6718 28.752 34.3434 28.8993 34.8114 29.194C35.2794 29.48 35.5134 29.9393 35.5134 30.572C35.5134 31.066 35.3488 31.5037 35.0194 31.885C34.6988 32.275 34.2394 32.5827 33.6414 32.808C33.0521 33.042 32.3544 33.159 31.5484 33.159ZM31.6524 26.516C31.8691 26.516 32.0641 26.464 32.2374 26.36C32.4108 26.256 32.5494 26.1043 32.6534 25.905C32.7574 25.697 32.8094 25.45 32.8094 25.164C32.8094 24.878 32.7574 24.6397 32.6534 24.449C32.5494 24.2497 32.4108 24.1023 32.2374 24.007C32.0641 23.903 31.8691 23.851 31.6524 23.851C31.4444 23.851 31.2538 23.903 31.0804 24.007C30.9071 24.1023 30.7684 24.2497 30.6644 24.449C30.5691 24.6397 30.5214 24.878 30.5214 25.164C30.5214 25.45 30.5691 25.697 30.6644 25.905C30.7684 26.1043 30.9071 26.256 31.0804 26.36C31.2538 26.464 31.4444 26.516 31.6524 26.516ZM31.8344 31.937C32.2071 31.937 32.5278 31.8893 32.7964 31.794C33.0738 31.6987 33.2904 31.573 33.4464 31.417C33.6024 31.261 33.6804 31.0877 33.6804 30.897C33.6804 30.637 33.5764 30.4593 33.3684 30.364C33.1604 30.2773 32.8614 30.234 32.4714 30.234H31.5744C31.3578 30.234 31.1714 30.2253 31.0154 30.208C30.8594 30.1993 30.7121 30.1777 30.5734 30.143C30.4088 30.273 30.2874 30.4073 30.2094 30.546C30.1401 30.6933 30.1054 30.845 30.1054 31.001C30.1054 31.2957 30.2614 31.5253 30.5734 31.69C30.8854 31.8547 31.3058 31.937 31.8344 31.937Z" fill="white"/>
<path d="M34 0H42C43.1046 0 44 0.895431 44 2V10H36C34.8954 10 34 9.10457 34 8V0Z" fill="url(#paint0_linear_14703_116)"/>
<defs>
<linearGradient id="paint0_linear_14703_116" x1="44" y1="0" x2="34" y2="10" gradientUnits="userSpaceOnUse">
<stop offset="0.5" stop-color="white"/>
<stop offset="0.5" stop-color="#C6C6C6"/>
</linearGradient>
</defs>
</svg>
