<svg width="44" height="40" viewBox="0 0 44 40" fill="none" xmlns="http://www.w3.org/2000/svg">
<path d="M12 4C12 1.79086 13.7909 0 16 0H40C42.2091 0 44 1.79086 44 4V36C44 38.2091 42.2091 40 40 40H16C13.7909 40 12 38.2091 12 36V4Z" fill="#D9D9D9"/>
<path d="M4 19C4 16.7909 5.79086 15 8 15H36C38.2091 15 40 16.7909 40 19V31C40 33.2091 38.2091 35 36 35H8C5.79086 35 4 33.2091 4 31V19Z" fill="#4A5B6A"/>
<path d="M14.1497 30.182C13.8291 30.182 13.4997 30.0997 13.1617 29.935C12.8237 29.7703 12.5074 29.5363 12.2127 29.233H12.1477L11.9917 30H10.4967V19.626H12.4077V22.239L12.3427 23.409C12.6374 23.149 12.9581 22.941 13.3047 22.785C13.6601 22.6203 14.0154 22.538 14.3707 22.538C14.9687 22.538 15.4801 22.694 15.9047 23.006C16.3381 23.3093 16.6674 23.7383 16.8927 24.293C17.1267 24.839 17.2437 25.4847 17.2437 26.23C17.2437 27.062 17.0964 27.777 16.8017 28.375C16.5071 28.9643 16.1214 29.415 15.6447 29.727C15.1767 30.0303 14.6784 30.182 14.1497 30.182ZM13.7337 28.609C14.0197 28.609 14.2797 28.5267 14.5137 28.362C14.7477 28.1887 14.9341 27.9287 15.0727 27.582C15.2114 27.2353 15.2807 26.7977 15.2807 26.269C15.2807 25.8097 15.2287 25.4197 15.1247 25.099C15.0207 24.7697 14.8647 24.5227 14.6567 24.358C14.4487 24.1933 14.1757 24.111 13.8377 24.111C13.5951 24.111 13.3567 24.1717 13.1227 24.293C12.8974 24.4143 12.6591 24.6007 12.4077 24.852V28.063C12.6331 28.271 12.8584 28.414 13.0837 28.492C13.3177 28.57 13.5344 28.609 13.7337 28.609ZM18.8629 30V22.72H20.4229L20.5659 23.682H20.6049C20.9256 23.37 21.2766 23.1013 21.6579 22.876C22.0393 22.6507 22.4769 22.538 22.9709 22.538C23.7596 22.538 24.3316 22.798 24.6869 23.318C25.0423 23.8293 25.2199 24.5443 25.2199 25.463V30H23.3089V25.697C23.3089 25.1337 23.2266 24.7393 23.0619 24.514C22.9059 24.2887 22.6459 24.176 22.2819 24.176C21.9873 24.176 21.7273 24.2453 21.5019 24.384C21.2853 24.5227 21.0426 24.7263 20.7739 24.995V30H18.8629ZM27.1911 32.795V22.72H28.7511L28.8941 23.474H28.9331C29.2364 23.214 29.5701 22.993 29.9341 22.811C30.3067 22.629 30.6881 22.538 31.0781 22.538C31.6761 22.538 32.1874 22.694 32.6121 23.006C33.0367 23.3093 33.3617 23.7383 33.5871 24.293C33.8211 24.839 33.9381 25.489 33.9381 26.243C33.9381 27.075 33.7907 27.7857 33.4961 28.375C33.2014 28.9643 32.8157 29.415 32.3391 29.727C31.8711 30.0303 31.3727 30.182 30.8441 30.182C30.5321 30.182 30.2201 30.1127 29.9081 29.974C29.6047 29.8353 29.3144 29.6403 29.0371 29.389L29.1021 30.572V32.795H27.1911ZM30.4281 28.609C30.7141 28.609 30.9741 28.5267 31.2081 28.362C31.4421 28.1887 31.6284 27.9287 31.7671 27.582C31.9057 27.2353 31.9751 26.7977 31.9751 26.269C31.9751 25.8097 31.9231 25.4197 31.8191 25.099C31.7151 24.7697 31.5591 24.5227 31.3511 24.358C31.1431 24.1933 30.8701 24.111 30.5321 24.111C30.2894 24.111 30.0511 24.1717 29.8171 24.293C29.5917 24.4143 29.3534 24.6007 29.1021 24.852V28.063C29.3361 28.271 29.5657 28.414 29.7911 28.492C30.0164 28.57 30.2287 28.609 30.4281 28.609Z" fill="white"/>
<path d="M34 0H42C43.1046 0 44 0.895431 44 2V10H36C34.8954 10 34 9.10457 34 8V0Z" fill="url(#paint0_linear_14703_126)"/>
<defs>
<linearGradient id="paint0_linear_14703_126" x1="44" y1="0" x2="34" y2="10" gradientUnits="userSpaceOnUse">
<stop offset="0.5" stop-color="white"/>
<stop offset="0.5" stop-color="#C6C6C6"/>
</linearGradient>
</defs>
</svg>
