<svg width="44" height="40" viewBox="0 0 44 40" fill="none" xmlns="http://www.w3.org/2000/svg">
<path d="M12 4C12 1.79086 13.7909 0 16 0H40C42.2091 0 44 1.79086 44 4V36C44 38.2091 42.2091 40 40 40H16C13.7909 40 12 38.2091 12 36V4Z" fill="#D9D9D9"/>
<path d="M4 19C4 16.7909 5.79086 15 8 15H36C38.2091 15 40 16.7909 40 19V31C40 33.2091 38.2091 35 36 35H8C5.79086 35 4 33.2091 4 31V19Z" fill="#69707D"/>
<path d="M16.9386 30.182C16.3666 30.182 15.9029 30.0693 15.5476 29.844C15.1922 29.61 14.9366 29.2893 14.7806 28.882C14.6246 28.4747 14.5466 28.0023 14.5466 27.465V24.228H13.5196V22.811L14.6506 22.72L14.8716 20.757H16.4446V22.72H18.2516V24.228H16.4446V27.452C16.4446 27.868 16.5312 28.1757 16.7046 28.375C16.8779 28.5743 17.1249 28.674 17.4456 28.674C17.5669 28.674 17.6926 28.6567 17.8226 28.622C17.9526 28.5873 18.0652 28.5527 18.1606 28.518L18.4856 29.909C18.2862 29.9697 18.0566 30.0303 17.7966 30.091C17.5452 30.1517 17.2592 30.182 16.9386 30.182ZM18.6597 30L20.9347 26.217L18.8027 22.72H20.8567L21.5847 24.007C21.6887 24.215 21.7927 24.423 21.8967 24.631C22.0093 24.839 22.122 25.0427 22.2347 25.242H22.2867C22.3733 25.0427 22.46 24.839 22.5467 24.631C22.642 24.423 22.7373 24.215 22.8327 24.007L23.4307 22.72H25.4067L23.2747 26.425L25.5497 30H23.4957L22.6897 28.661C22.577 28.4443 22.46 28.232 22.3387 28.024C22.226 27.8073 22.109 27.5993 21.9877 27.4H21.9227C21.8187 27.5993 21.7147 27.8073 21.6107 28.024C21.5153 28.232 21.4157 28.4443 21.3117 28.661L20.6487 30H18.6597ZM28.9737 30.182C28.4017 30.182 27.9381 30.0693 27.5827 29.844C27.2274 29.61 26.9717 29.2893 26.8157 28.882C26.6597 28.4747 26.5817 28.0023 26.5817 27.465V24.228H25.5547V22.811L26.6857 22.72L26.9067 20.757H28.4797V22.72H30.2867V24.228H28.4797V27.452C28.4797 27.868 28.5664 28.1757 28.7397 28.375C28.9131 28.5743 29.1601 28.674 29.4807 28.674C29.6021 28.674 29.7277 28.6567 29.8577 28.622C29.9877 28.5873 30.1004 28.5527 30.1957 28.518L30.5207 29.909C30.3214 29.9697 30.0917 30.0303 29.8317 30.091C29.5804 30.1517 29.2944 30.182 28.9737 30.182Z" fill="white"/>
<path d="M34 0H42C43.1046 0 44 0.895431 44 2V10H36C34.8954 10 34 9.10457 34 8V0Z" fill="url(#paint0_linear_11970_4897)"/>
<defs>
<linearGradient id="paint0_linear_11970_4897" x1="44" y1="0" x2="34" y2="10" gradientUnits="userSpaceOnUse">
<stop offset="0.5" stop-color="white"/>
<stop offset="0.5" stop-color="#C6C6C6"/>
</linearGradient>
</defs>
</svg>
