<svg width="21" height="21" viewBox="0 0 21 21" fill="none" xmlns="http://www.w3.org/2000/svg">
<mask id="mask0_14651_3055" style="mask-type:alpha" maskUnits="userSpaceOnUse" x="0" y="0" width="21" height="21">
<rect x="0.5" y="0.639648" width="20" height="20" fill="#D9D9D9"/>
</mask>
<g mask="url(#mask0_14651_3055)">
<path d="M9.6665 14.8062H11.3332V9.80615H9.6665V14.8062ZM10.4998 8.13949C10.7359 8.13949 10.9339 8.05963 11.0936 7.8999C11.2533 7.74018 11.3332 7.54226 11.3332 7.30615C11.3332 7.07004 11.2533 6.87212 11.0936 6.7124C10.9339 6.55268 10.7359 6.47282 10.4998 6.47282C10.2637 6.47282 10.0658 6.55268 9.90609 6.7124C9.74637 6.87212 9.6665 7.07004 9.6665 7.30615C9.6665 7.54226 9.74637 7.74018 9.90609 7.8999C10.0658 8.05963 10.2637 8.13949 10.4998 8.13949ZM10.4998 18.9728C9.34706 18.9728 8.26373 18.7541 7.24984 18.3166C6.23595 17.8791 5.354 17.2853 4.604 16.5353C3.854 15.7853 3.26025 14.9034 2.82275 13.8895C2.38525 12.8756 2.1665 11.7923 2.1665 10.6395C2.1665 9.48671 2.38525 8.40337 2.82275 7.38949C3.26025 6.3756 3.854 5.49365 4.604 4.74365C5.354 3.99365 6.23595 3.3999 7.24984 2.9624C8.26373 2.5249 9.34706 2.30615 10.4998 2.30615C11.6526 2.30615 12.7359 2.5249 13.7498 2.9624C14.7637 3.3999 15.6457 3.99365 16.3957 4.74365C17.1457 5.49365 17.7394 6.3756 18.1769 7.38949C18.6144 8.40337 18.8332 9.48671 18.8332 10.6395C18.8332 11.7923 18.6144 12.8756 18.1769 13.8895C17.7394 14.9034 17.1457 15.7853 16.3957 16.5353C15.6457 17.2853 14.7637 17.8791 13.7498 18.3166C12.7359 18.7541 11.6526 18.9728 10.4998 18.9728ZM10.4998 17.3062C12.3609 17.3062 13.9373 16.6603 15.229 15.3687C16.5207 14.077 17.1665 12.5006 17.1665 10.6395C17.1665 8.77837 16.5207 7.20199 15.229 5.91032C13.9373 4.61865 12.3609 3.97282 10.4998 3.97282C8.63873 3.97282 7.06234 4.61865 5.77067 5.91032C4.479 7.20199 3.83317 8.77837 3.83317 10.6395C3.83317 12.5006 4.479 14.077 5.77067 15.3687C7.06234 16.6603 8.63873 17.3062 10.4998 17.3062Z" fill="#D04500"/>
</g>
</svg>
