<svg width="20" height="20" viewBox="0 0 20 20" fill="none" xmlns="http://www.w3.org/2000/svg">
<path d="M8 14.3199C9.66667 14.3199 11.0833 13.7366 12.25 12.5699C13.4167 11.4033 14 9.9866 14 8.31993C14 6.65326 13.4167 5.2366 12.25 4.06993C11.0833 2.90326 9.66667 2.31993 8 2.31993C6.33333 2.31993 4.91667 2.90326 3.75 4.06993C2.58333 5.2366 2 6.65326 2 8.31993C2 9.9866 2.58333 11.4033 3.75 12.5699C4.91667 13.7366 6.33333 14.3199 8 14.3199ZM8 16.3199C5.76667 16.3199 3.875 15.5449 2.325 13.9949C0.775 12.4449 0 10.5533 0 8.31993C0 6.0866 0.775 4.19493 2.325 2.64493C3.875 1.09493 5.76667 0.319931 8 0.319931C10.2333 0.319931 12.125 1.09493 13.675 2.64493C15.225 4.19493 16 6.0866 16 8.31993C16 9.25326 15.8542 10.1324 15.5625 10.9574C15.2708 11.7824 14.8583 12.5366 14.325 13.2199L19.3 18.1949C19.5 18.3949 19.6 18.6324 19.6 18.9074C19.6 19.1824 19.5 19.4199 19.3 19.6199C19.1 19.8199 18.8625 19.9199 18.5875 19.9199C18.3125 19.9199 18.075 19.8199 17.875 19.6199L12.9 14.6449C12.2167 15.1783 11.4625 15.5908 10.6375 15.8824C9.8125 16.1741 8.93333 16.3199 8 16.3199Z" fill="#555555"/>
</svg>
