<svg width="18" height="19" viewBox="0 0 18 19" fill="none" xmlns="http://www.w3.org/2000/svg">
<mask id="mask0_14698_1027" style="mask-type:alpha" maskUnits="userSpaceOnUse" x="0" y="0" width="18" height="19">
<rect y="0.5" width="18" height="18" fill="#D9D9D9"/>
</mask>
<g mask="url(#mask0_14698_1027)">
<path d="M3.1875 14.2251C2.7125 13.6626 2.33125 13.0438 2.04375 12.3688C1.75625 11.6938 1.575 10.9876 1.5 10.2501H3.0375C3.1125 10.7876 3.25 11.3032 3.45 11.797C3.65 12.2907 3.9125 12.7501 4.2375 13.1751L3.1875 14.2251ZM1.5 8.7501C1.6 8.0126 1.7875 7.30635 2.0625 6.63135C2.3375 5.95635 2.7125 5.3376 3.1875 4.7751L4.2375 5.8251C3.9125 6.2501 3.65 6.70947 3.45 7.20322C3.25 7.69697 3.1125 8.2126 3.0375 8.7501H1.5ZM8.2125 16.9626C7.475 16.8876 6.77188 16.7095 6.10313 16.4282C5.43438 16.147 4.8125 15.7751 4.2375 15.3126L5.2875 14.2251C5.725 14.5501 6.1875 14.8188 6.675 15.0313C7.1625 15.2438 7.675 15.3876 8.2125 15.4626V16.9626ZM5.325 4.7751L4.2375 3.6876C4.825 3.2251 5.45625 2.85322 6.13125 2.57197C6.80625 2.29072 7.5125 2.1126 8.25 2.0376V3.5376C7.7125 3.6126 7.19688 3.75635 6.70312 3.96885C6.20937 4.18135 5.75 4.4501 5.325 4.7751ZM9.7125 16.9626V15.4626C10.2625 15.3876 10.7844 15.247 11.2781 15.0407C11.7719 14.8345 12.2375 14.5626 12.675 14.2251L13.7625 15.3126C13.175 15.7876 12.5406 16.1626 11.8594 16.4376C11.1781 16.7126 10.4625 16.8876 9.7125 16.9626ZM12.7125 4.7751C12.275 4.4501 11.8062 4.18135 11.3062 3.96885C10.8062 3.75635 10.2875 3.6126 9.75 3.5376V2.0376C10.4875 2.1126 11.1969 2.29072 11.8781 2.57197C12.5594 2.85322 13.1875 3.2251 13.7625 3.6876L12.7125 4.7751ZM14.8125 14.2251L13.7625 13.1751C14.0875 12.7501 14.35 12.2907 14.55 11.797C14.75 11.3032 14.8875 10.7876 14.9625 10.2501H16.5C16.4 10.9876 16.2125 11.6938 15.9375 12.3688C15.6625 13.0438 15.2875 13.6626 14.8125 14.2251ZM14.9625 8.7501C14.8875 8.2126 14.75 7.69697 14.55 7.20322C14.35 6.70947 14.0875 6.2501 13.7625 5.8251L14.8125 4.7751C15.2875 5.3376 15.6687 5.95635 15.9562 6.63135C16.2437 7.30635 16.425 8.0126 16.5 8.7501H14.9625ZM8.26875 13.2501V8.61885L6.31875 10.5688L5.26875 9.5001L9.01875 5.7501L12.7688 9.5001L11.7 10.5501L9.76875 8.61885V13.2501H8.26875Z" fill="#007AB8"/>
</g>
</svg>
