<svg width="20" height="21" viewBox="0 0 20 21" fill="none" xmlns="http://www.w3.org/2000/svg">
<mask id="mask0_14664_259" style="mask-type:alpha" maskUnits="userSpaceOnUse" x="0" y="0" width="20" height="21">
<rect y="0.639893" width="20" height="20" fill="#D9D9D9"/>
</mask>
<g mask="url(#mask0_14664_259)">
<path d="M0.833496 18.1399L10.0002 2.30652L19.1668 18.1399H0.833496ZM3.7085 16.4732H16.2918L10.0002 5.63985L3.7085 16.4732ZM10.0002 15.6399C10.2363 15.6399 10.4342 15.56 10.5939 15.4003C10.7536 15.2405 10.8335 15.0426 10.8335 14.8065C10.8335 14.5704 10.7536 14.3725 10.5939 14.2128C10.4342 14.053 10.2363 13.9732 10.0002 13.9732C9.76405 13.9732 9.56613 14.053 9.40641 14.2128C9.24669 14.3725 9.16683 14.5704 9.16683 14.8065C9.16683 15.0426 9.24669 15.2405 9.40641 15.4003C9.56613 15.56 9.76405 15.6399 10.0002 15.6399ZM9.16683 13.1399H10.8335V8.97319H9.16683V13.1399Z" fill="#C23E00"/>
</g>
</svg>
