<svg width="20" height="21" viewBox="0 0 20 21" fill="none" xmlns="http://www.w3.org/2000/svg">
<mask id="mask0_14664_790" style="mask-type:alpha" maskUnits="userSpaceOnUse" x="0" y="0" width="20" height="21">
<rect y="0.639893" width="20" height="20" fill="#D9D9D9"/>
</mask>
<g mask="url(#mask0_14664_790)">
<path d="M6.99984 14.8065L9.99984 11.8065L12.9998 14.8065L14.1665 13.6399L11.1665 10.6399L14.1665 7.63985L12.9998 6.47319L9.99984 9.47319L6.99984 6.47319L5.83317 7.63985L8.83317 10.6399L5.83317 13.6399L6.99984 14.8065ZM9.99984 18.9732C8.84706 18.9732 7.76373 18.7544 6.74984 18.3169C5.73595 17.8794 4.854 17.2857 4.104 16.5357C3.354 15.7857 2.76025 14.9037 2.32275 13.8899C1.88525 12.876 1.6665 11.7926 1.6665 10.6399C1.6665 9.48707 1.88525 8.40374 2.32275 7.38985C2.76025 6.37596 3.354 5.49402 4.104 4.74402C4.854 3.99402 5.73595 3.40027 6.74984 2.96277C7.76373 2.52527 8.84706 2.30652 9.99984 2.30652C11.1526 2.30652 12.2359 2.52527 13.2498 2.96277C14.2637 3.40027 15.1457 3.99402 15.8957 4.74402C16.6457 5.49402 17.2394 6.37596 17.6769 7.38985C18.1144 8.40374 18.3332 9.48707 18.3332 10.6399C18.3332 11.7926 18.1144 12.876 17.6769 13.8899C17.2394 14.9037 16.6457 15.7857 15.8957 16.5357C15.1457 17.2857 14.2637 17.8794 13.2498 18.3169C12.2359 18.7544 11.1526 18.9732 9.99984 18.9732ZM9.99984 17.3065C11.8609 17.3065 13.4373 16.6607 14.729 15.369C16.0207 14.0774 16.6665 12.501 16.6665 10.6399C16.6665 8.77874 16.0207 7.20235 14.729 5.91069C13.4373 4.61902 11.8609 3.97319 9.99984 3.97319C8.13873 3.97319 6.56234 4.61902 5.27067 5.91069C3.979 7.20235 3.33317 8.77874 3.33317 10.6399C3.33317 12.501 3.979 14.0774 5.27067 15.369C6.56234 16.6607 8.13873 17.3065 9.99984 17.3065Z" fill="#C40000"/>
</g>
</svg>
