<svg width="20" height="20" viewBox="0 0 20 20" fill="none" xmlns="http://www.w3.org/2000/svg">
<mask id="mask0_14648_620" style="mask-type:alpha" maskUnits="userSpaceOnUse" x="0" y="0" width="20" height="20">
<rect y="-1.52588e-05" width="20" height="20" fill="#D9D9D9"/>
</mask>
<g mask="url(#mask0_14648_620)">
<path d="M3.33325 15.8333V14.1666H4.99992V8.33332C4.99992 7.18054 5.34714 6.15623 6.04159 5.2604C6.73603 4.36457 7.63881 3.77776 8.74992 3.49998V2.91665C8.74992 2.56943 8.87145 2.27429 9.1145 2.03123C9.35756 1.78818 9.6527 1.66665 9.99992 1.66665C10.3471 1.66665 10.6423 1.78818 10.8853 2.03123C11.1284 2.27429 11.2499 2.56943 11.2499 2.91665V3.49998C12.361 3.77776 13.2638 4.36457 13.9583 5.2604C14.6527 6.15623 14.9999 7.18054 14.9999 8.33332V14.1666H16.6666V15.8333H3.33325ZM9.99992 18.3333C9.54158 18.3333 9.14922 18.1701 8.82284 17.8437C8.49645 17.5173 8.33325 17.125 8.33325 16.6666H11.6666C11.6666 17.125 11.5034 17.5173 11.177 17.8437C10.8506 18.1701 10.4583 18.3333 9.99992 18.3333ZM6.66659 14.1666H13.3333V8.33332C13.3333 7.41665 13.0069 6.63193 12.3541 5.97915C11.7013 5.32637 10.9166 4.99998 9.99992 4.99998C9.08325 4.99998 8.29853 5.32637 7.64575 5.97915C6.99297 6.63193 6.66659 7.41665 6.66659 8.33332V14.1666Z" fill="#555555"/>
</g>
</svg>
