<svg width="20" height="20" viewBox="0 0 20 20" fill="none" xmlns="http://www.w3.org/2000/svg">
<path d="M16.7473 2.02491H14.8223V1.06241C14.8223 0.807144 14.7209 0.562328 14.5404 0.381824C14.3599 0.20132 14.115 0.0999146 13.8598 0.0999146C13.6045 0.0999146 13.3597 0.20132 13.1792 0.381824C12.9987 0.562328 12.8973 0.807144 12.8973 1.06241V2.02491H7.12227V1.06241C7.12227 0.807144 7.02086 0.562328 6.84036 0.381824C6.65985 0.20132 6.41504 0.0999146 6.15977 0.0999146C5.90449 0.0999146 5.65968 0.20132 5.47918 0.381824C5.29867 0.562328 5.19727 0.807144 5.19727 1.06241V2.02491H3.27227C2.50645 2.02491 1.77201 2.32913 1.23049 2.87064C0.688984 3.41216 0.384766 4.1466 0.384766 4.91241V16.4624C0.384766 17.2282 0.688984 17.9627 1.23049 18.5042C1.77201 19.0457 2.50645 19.3499 3.27227 19.3499H16.7473C17.5131 19.3499 18.2475 19.0457 18.789 18.5042C19.3305 17.9627 19.6348 17.2282 19.6348 16.4624V4.91241C19.6348 4.1466 19.3305 3.41216 18.789 2.87064C18.2475 2.32913 17.5131 2.02491 16.7473 2.02491ZM17.7098 16.4624C17.7098 16.7177 17.6084 16.9625 17.4279 17.143C17.2474 17.3235 17.0025 17.4249 16.7473 17.4249H3.27227C3.01699 17.4249 2.77218 17.3235 2.59168 17.143C2.41117 16.9625 2.30977 16.7177 2.30977 16.4624V9.72491H17.7098V16.4624ZM17.7098 7.79991H2.30977V4.91241C2.30977 4.65714 2.41117 4.41233 2.59168 4.23182C2.77218 4.05132 3.01699 3.94991 3.27227 3.94991H5.19727V4.91241C5.19727 5.16769 5.29867 5.4125 5.47918 5.593C5.65968 5.77351 5.90449 5.87491 6.15977 5.87491C6.41504 5.87491 6.65985 5.77351 6.84036 5.593C7.02086 5.4125 7.12227 5.16769 7.12227 4.91241V3.94991H12.8973V4.91241C12.8973 5.16769 12.9987 5.4125 13.1792 5.593C13.3597 5.77351 13.6045 5.87491 13.8598 5.87491C14.115 5.87491 14.3599 5.77351 14.5404 5.593C14.7209 5.4125 14.8223 5.16769 14.8223 4.91241V3.94991H16.7473C17.0025 3.94991 17.2474 4.05132 17.4279 4.23182C17.6084 4.41233 17.7098 4.65714 17.7098 4.91241V7.79991Z" fill="#676767"/>
</svg>
