<svg width="18" height="19" viewBox="0 0 18 19" fill="none" xmlns="http://www.w3.org/2000/svg">
<mask id="mask0_14698_220" style="mask-type:alpha" maskUnits="userSpaceOnUse" x="0" y="0" width="18" height="19">
<rect y="0.5" width="18" height="18" fill="#D9D9D9"/>
</mask>
<g mask="url(#mask0_14698_220)">
<path d="M0.75 16.25L9 2L17.25 16.25H0.75ZM3.3375 14.75H14.6625L9 5L3.3375 14.75ZM9 14C9.2125 14 9.39062 13.9281 9.53438 13.7844C9.67813 13.6406 9.75 13.4625 9.75 13.25C9.75 13.0375 9.67813 12.8594 9.53438 12.7156C9.39062 12.5719 9.2125 12.5 9 12.5C8.7875 12.5 8.60938 12.5719 8.46563 12.7156C8.32188 12.8594 8.25 13.0375 8.25 13.25C8.25 13.4625 8.32188 13.6406 8.46563 13.7844C8.60938 13.9281 8.7875 14 9 14ZM8.25 11.75H9.75V8H8.25V11.75Z" fill="#C40000"/>
</g>
</svg>
