<svg width="52" height="53" viewBox="0 0 52 53" fill="none" xmlns="http://www.w3.org/2000/svg">
<path d="M30.4688 41.2649C22.6281 41.2649 16.25 34.8868 16.25 27.0461C16.25 19.2055 22.6281 12.8274 30.4688 12.8274C38.3094 12.8274 44.6875 19.2055 44.6875 27.0461C44.6875 34.8868 38.3094 41.2649 30.4688 41.2649ZM30.4688 16.8899C24.8727 16.8899 20.3125 21.45 20.3125 27.0461C20.3125 32.6422 24.8727 37.2024 30.4688 37.2024C36.0648 37.2024 40.625 32.6422 40.625 27.0461C40.625 21.45 36.0648 16.8899 30.4688 16.8899Z" fill="white"/>
<path d="M49.9688 48.5774C49.4509 48.5774 48.9329 48.3742 48.5368 47.9781L37.6493 37.1008C36.8571 36.3086 36.8571 35.0188 37.6493 34.2266C38.4415 33.4344 39.7313 33.4344 40.5235 34.2266L51.4009 45.1039C52.1931 45.8961 52.1931 47.186 51.4009 47.9781C51.0048 48.3742 50.4868 48.5774 49.9688 48.5774Z" fill="white" fill-opacity="0.9"/>
<path d="M34.5312 8.76489H2.03125C0.914062 8.76489 0 7.85083 0 6.73364C0 5.61646 0.914062 4.70239 2.03125 4.70239H34.5312C35.6484 4.70239 36.5625 5.61646 36.5625 6.73364C36.5625 7.85083 35.6484 8.76489 34.5312 8.76489Z" fill="white" fill-opacity="0.9"/>
<path d="M11.8523 20.9524H2.03125C0.914062 20.9524 0 20.0383 0 18.9211C0 17.804 0.914062 16.8899 2.03125 16.8899H11.8523C12.9695 16.8899 13.8836 17.804 13.8836 18.9211C13.8836 20.0383 12.9695 20.9524 11.8523 20.9524Z" fill="white" fill-opacity="0.9"/>
<path d="M10.5625 33.1399H2.03125C0.914062 33.1399 0 32.2258 0 31.1086C0 29.9915 0.914062 29.0774 2.03125 29.0774H10.5625C11.6797 29.0774 12.5938 29.9915 12.5938 31.1086C12.5938 32.2258 11.6898 33.1399 10.5625 33.1399Z" fill="white" fill-opacity="0.9"/>
<path d="M18.2914 45.3274H2.03125C0.914062 45.3274 0 44.4133 0 43.2961C0 42.179 0.914062 41.2649 2.03125 41.2649H18.2914C19.4086 41.2649 20.3227 42.179 20.3227 43.2961C20.3227 44.4133 19.4188 45.3274 18.2914 45.3274Z" fill="white" fill-opacity="0.9"/>
</svg>
