<svg width="52" height="53" viewBox="0 0 52 53" fill="none" xmlns="http://www.w3.org/2000/svg">
<g clip-path="url(#clip0_14625_2448)">
<mask id="mask0_14625_2448" style="mask-type:luminance" maskUnits="userSpaceOnUse" x="-9" y="-9" width="70" height="71">
<path d="M60.6705 61.3002H-8.66284V-8.0331H60.6705V61.3002Z" fill="white"/>
</mask>
<g mask="url(#mask0_14625_2448)">
<path d="M25.9987 24.6075C24.8815 24.6075 23.9675 23.6935 23.9675 22.5764V6.32719C23.9675 5.21006 24.8815 4.29604 25.9987 4.29604C27.1158 4.29604 28.0298 5.21006 28.0298 6.32719V22.5764C28.0298 23.6935 27.1158 24.6075 25.9987 24.6075Z" fill="white" fill-opacity="0.9"/>
<path d="M25.9987 24.6075C24.9324 24.6075 23.8762 24.3232 22.952 23.7951C22.5864 23.5818 22.2513 23.3381 21.9364 23.0639C21.9364 23.0639 21.9364 23.0639 21.9263 23.0639L21.5607 22.7287L21.5505 22.7186L18.5444 20.0273C17.7117 19.2758 17.6406 17.9961 18.3819 17.1634C19.1335 16.3306 20.4131 16.2595 21.2459 17.0009L24.6277 20.0273C24.7293 20.1187 24.8511 20.1999 24.9629 20.271C25.2675 20.4538 25.6128 20.5452 25.9784 20.5452C26.344 20.5452 26.6792 20.4538 26.994 20.271C27.1159 20.1999 27.2276 20.1187 27.3292 20.0273L30.711 17.0009C31.5438 16.2494 32.8336 16.3204 33.5749 17.1634C34.3265 17.9961 34.2554 19.2859 33.4124 20.0273L30.061 23.0537C29.7462 23.3279 29.4111 23.5818 29.0455 23.7849C28.1213 24.3232 27.0651 24.6075 25.9987 24.6075Z" fill="white" fill-opacity="0.9"/>
<path d="M41.8417 48.9813H10.1558C4.55993 48.9813 0 44.4214 0 38.8256V30.701C0 27.3394 2.7319 24.6075 6.09345 24.6075H13.8118C16.4625 24.6075 18.7171 26.3035 19.56 28.6698H32.4476C33.2804 26.3035 35.535 24.6075 38.1856 24.6075H45.904C49.2656 24.6075 51.9975 27.3394 51.9975 30.701V38.8256C51.9975 44.4214 47.4375 48.9813 41.8417 48.9813ZM6.09345 28.6698C4.97632 28.6698 4.0623 29.5838 4.0623 30.701V38.8256C4.0623 42.1871 6.7942 44.919 10.1558 44.919H41.8417C45.2033 44.919 47.9352 42.1871 47.9352 38.8256V30.701C47.9352 29.5838 47.0211 28.6698 45.904 28.6698H38.1856C37.0685 28.6698 36.1545 29.5838 36.1545 30.701C36.1545 31.8181 35.2405 32.7321 34.1233 32.7321H17.8741C16.757 32.7321 15.843 31.8181 15.843 30.701C15.843 29.5838 14.929 28.6698 13.8118 28.6698H6.09345Z" fill="white" fill-opacity="0.9"/>
<path d="M49.9664 36.7944C48.8493 36.7944 47.9353 35.8804 47.9353 34.7633V18.5141C47.9353 15.1525 45.2034 12.4206 41.8418 12.4206H34.1234C33.0063 12.4206 32.0923 11.5066 32.0923 10.3895C32.0923 9.27234 33.0063 8.35833 34.1234 8.35833H41.8418C47.4376 8.35833 51.9976 12.9183 51.9976 18.5141V34.7633C51.9976 35.8804 51.0835 36.7944 49.9664 36.7944Z" fill="white" fill-opacity="0.9"/>
<path d="M2.03115 36.7944C0.914018 36.7944 0 35.8804 0 34.7633V18.5141C0 12.9183 4.55993 8.35833 10.1558 8.35833H17.8741C18.9913 8.35833 19.9053 9.27234 19.9053 10.3895C19.9053 11.5066 18.9913 12.4206 17.8741 12.4206H10.1558C6.7942 12.4206 4.0623 15.1525 4.0623 18.5141V34.7633C4.0623 35.8804 3.14828 36.7944 2.03115 36.7944Z" fill="white" fill-opacity="0.9"/>
<path d="M30.061 40.8568H21.9364C20.8193 40.8568 19.9053 39.9427 19.9053 38.8256C19.9053 37.7085 20.8193 36.7944 21.9364 36.7944H30.061C31.1782 36.7944 32.0922 37.7085 32.0922 38.8256C32.0922 39.9427 31.1782 40.8568 30.061 40.8568Z" fill="white" fill-opacity="0.9"/>
</g>
</g>
<defs>
<clipPath id="clip0_14625_2448">
<rect width="52" height="52" fill="white" transform="translate(0 0.639893)"/>
</clipPath>
</defs>
</svg>
