<svg width="52" height="53" viewBox="0 0 52 53" fill="none" xmlns="http://www.w3.org/2000/svg">
<g clip-path="url(#clip0_14625_2591)">
<mask id="mask0_14625_2591" style="mask-type:luminance" maskUnits="userSpaceOnUse" x="-9" y="-9" width="70" height="71">
<path d="M60.6705 61.3002H-8.66284V-8.03316H60.6705V61.3002Z" fill="white"/>
</mask>
<g mask="url(#mask0_14625_2591)">
<path d="M10.1557 28.2635C11.2728 28.2635 12.1868 27.3495 12.1868 26.2324C12.1868 25.1153 11.2728 24.2012 10.1557 24.2012C9.03853 24.2012 8.12451 25.1153 8.12451 26.2324C8.12451 27.3495 9.03853 28.2635 10.1557 28.2635Z" fill="white"/>
<path d="M10.1557 36.3881C11.2728 36.3881 12.1868 35.4741 12.1868 34.357C12.1868 33.2398 11.2728 32.3258 10.1557 32.3258C9.03853 32.3258 8.12451 33.2398 8.12451 34.357C8.12451 35.4741 9.03853 36.3881 10.1557 36.3881Z" fill="white"/>
<path d="M10.1557 44.5127C11.2728 44.5127 12.1868 43.5987 12.1868 42.4815C12.1868 41.3644 11.2728 40.4504 10.1557 40.4504C9.03853 40.4504 8.12451 41.3644 8.12451 42.4815C8.12451 43.5987 9.03853 44.5127 10.1557 44.5127Z" fill="white"/>
<path d="M41.8417 52.6373H10.1558C4.55993 52.6373 0 48.0774 0 42.4816V26.2324C0 20.6366 4.55993 16.0766 10.1558 16.0766H21.9364C23.0536 16.0766 23.9676 16.9906 23.9676 18.1078C23.9676 19.2249 23.0536 20.1389 21.9364 20.1389H10.1558C6.7942 20.1389 4.0623 22.8708 4.0623 26.2324V42.4816C4.0623 45.8431 6.7942 48.575 10.1558 48.575H41.8417C45.2033 48.575 47.9352 45.8431 47.9352 42.4816V26.2324C47.9352 22.8708 45.2033 20.1389 41.8417 20.1389H38.1856C37.0685 20.1389 36.1545 19.2249 36.1545 18.1078C36.1545 16.9906 37.0685 16.0766 38.1856 16.0766H41.8417C47.4375 16.0766 51.9975 20.6366 51.9975 26.2324V42.4816C51.9975 48.0774 47.4375 52.6373 41.8417 52.6373Z" fill="white" fill-opacity="0.9"/>
<path d="M34.1218 36.3897C33.6038 36.3897 33.0859 36.1866 32.6898 35.7905L29.8157 32.9164C28.6681 31.7688 28.0283 30.2353 28.0283 28.6104V6.73491C28.0283 3.37336 30.7602 0.641457 34.1218 0.641457C37.4833 0.641457 40.2152 3.37336 40.2152 6.73491V28.6104C40.2152 30.2353 39.5856 31.7688 38.4278 32.9164L35.5537 35.7905C35.1678 36.1866 34.6397 36.3897 34.1218 36.3897ZM34.1218 4.70376C33.0046 4.70376 32.0906 5.61777 32.0906 6.73491V28.6104C32.0906 29.1487 32.3039 29.6666 32.6898 30.0424L34.1218 31.4845L35.5537 30.0525C35.9397 29.6666 36.1529 29.1588 36.1529 28.6206V6.74507C36.1529 5.61778 35.2389 4.70376 34.1218 4.70376Z" fill="white" fill-opacity="0.9"/>
<path d="M38.1855 44.5127H30.0609C28.9438 44.5127 28.0298 43.5987 28.0298 42.4815C28.0298 41.3644 28.9438 40.4504 30.0609 40.4504H38.1855C39.3027 40.4504 40.2167 41.3644 40.2167 42.4815C40.2167 43.5987 39.3027 44.5127 38.1855 44.5127Z" fill="white" fill-opacity="0.9"/>
</g>
</g>
<defs>
<clipPath id="clip0_14625_2591">
<rect width="52" height="52" fill="white" transform="translate(0 0.639893)"/>
</clipPath>
</defs>
</svg>
