<svg width="52" height="53" viewBox="0 0 52 53" fill="none" xmlns="http://www.w3.org/2000/svg">
<g clip-path="url(#clip0_14625_2481)">
<path d="M36.1562 52.6399C28.3156 52.6399 21.9375 46.2618 21.9375 38.4211C21.9375 30.5805 28.3156 24.2024 36.1562 24.2024C43.9969 24.2024 50.375 30.5805 50.375 38.4211C50.375 46.2618 43.9969 52.6399 36.1562 52.6399ZM36.1562 28.2649C30.5602 28.2649 26 32.825 26 38.4211C26 44.0172 30.5602 48.5774 36.1562 48.5774C41.7523 48.5774 46.3125 44.0172 46.3125 38.4211C46.3125 32.825 41.7523 28.2649 36.1562 28.2649Z" fill="white" fill-opacity="0.9"/>
<path d="M15.8438 16.8899H11.7812C10.6641 16.8899 9.75 15.9758 9.75 14.8586C9.75 13.7415 10.6641 12.8274 11.7812 12.8274H15.8438C16.9609 12.8274 17.875 13.7415 17.875 14.8586C17.875 15.9758 16.9609 16.8899 15.8438 16.8899Z" fill="white" fill-opacity="0.9"/>
<path d="M19.9062 25.0149H11.7812C10.6641 25.0149 9.75 24.1008 9.75 22.9836C9.75 21.8665 10.6641 20.9524 11.7812 20.9524H19.9062C21.0234 20.9524 21.9375 21.8665 21.9375 22.9836C21.9375 24.1008 21.0234 25.0149 19.9062 25.0149Z" fill="white" fill-opacity="0.9"/>
<path d="M19.9062 52.6399H7.71875C4.35703 52.6399 1.625 49.9079 1.625 46.5461V6.73364C1.625 3.37192 4.35703 0.639893 7.71875 0.639893H23.9688C25.0859 0.639893 26 1.55396 26 2.67114C26 3.78833 25.0859 4.70239 23.9688 4.70239H7.71875C6.60156 4.70239 5.6875 5.61646 5.6875 6.73364V46.5461C5.6875 47.6633 6.60156 48.5774 7.71875 48.5774H19.9062C21.0234 48.5774 21.9375 49.4915 21.9375 50.6086C21.9375 51.7258 21.0234 52.6399 19.9062 52.6399Z" fill="white" fill-opacity="0.9"/>
<path d="M36.1562 20.9524C35.0391 20.9524 34.125 20.0383 34.125 18.9211V14.8586C34.125 13.7415 35.0391 12.8274 36.1562 12.8274C37.2734 12.8274 38.1875 13.7415 38.1875 14.8586V18.9211C38.1875 20.0383 37.2734 20.9524 36.1562 20.9524Z" fill="white" fill-opacity="0.9"/>
<path d="M36.1563 16.8899H28.0313C24.6695 16.8899 21.9375 14.1579 21.9375 10.7962V2.67116C21.9375 1.84851 22.4352 1.1071 23.1867 0.792257C23.9484 0.477413 24.8219 0.650069 25.4008 1.22898L37.5883 13.4165C38.1672 13.9954 38.3398 14.8688 38.025 15.6305C37.7203 16.3923 36.9789 16.8899 36.1563 16.8899ZM26 7.57663V10.7962C26 11.9134 26.9141 12.8274 28.0313 12.8274H31.2508L26 7.57663Z" fill="white" fill-opacity="0.9"/>
<path d="M40.2188 40.4524H32.0938C30.9766 40.4524 30.0625 39.5383 30.0625 38.4211C30.0625 37.304 30.9766 36.3899 32.0938 36.3899H40.2188C41.3359 36.3899 42.25 37.304 42.25 38.4211C42.25 39.5383 41.3359 40.4524 40.2188 40.4524Z" fill="white" fill-opacity="0.9"/>
<path d="M36.1562 44.5149C35.0391 44.5149 34.125 43.6008 34.125 42.4836V34.3586C34.125 33.2415 35.0391 32.3274 36.1562 32.3274C37.2734 32.3274 38.1875 33.2415 38.1875 34.3586V42.4836C38.1875 43.6008 37.2734 44.5149 36.1562 44.5149Z" fill="white" fill-opacity="0.9"/>
</g>
<defs>
<clipPath id="clip0_14625_2481">
<rect width="52" height="52" fill="white" transform="translate(0 0.639893)"/>
</clipPath>
</defs>
</svg>
